RedHatText-Medium.ufo
<glyph name="exclam" format="2">
  <advance width="246"/>
  <unicode hex="0021"/>
  <outline>
    <contour>
      <point x="81" y="215" type="line"/>
      <point x="165" y="215" type="line"/>
      <point x="179" y="727" type="line"/>
      <point x="67" y="727" type="line"/>
    </contour>
    <contour>
      <point x="123" y="-9" type="curve" smooth="yes"/>
      <point x="161" y="-9"/>
      <point x="192" y="22"/>
      <point x="192" y="61" type="curve" smooth="yes"/>
      <point x="192" y="100"/>
      <point x="161" y="131"/>
      <point x="123" y="131" type="curve" smooth="yes"/>
      <point x="85" y="131"/>
      <point x="54" y="100"/>
      <point x="54" y="61" type="curve" smooth="yes"/>
      <point x="54" y="22"/>
      <point x="85" y="-9"/>
    </contour>
  </outline>
</glyph>
<glyph name="numbersign" format="2">
  <advance width="717"/>
  <unicode hex="0023"/>
  <outline>
    <contour>
      <point x="61" y="0" type="line"/>
      <point x="159" y="0" type="line"/>
      <point x="229" y="203" type="line"/>
      <point x="388" y="203" type="line"/>
      <point x="319" y="0" type="line"/>
      <point x="417" y="0" type="line"/>
      <point x="486" y="203" type="line"/>
      <point x="626" y="203" type="line"/>
      <point x="626" y="287" type="line"/>
      <point x="515" y="287" type="line"/>
      <point x="559" y="413" type="line"/>
      <point x="674" y="413" type="line"/>
      <point x="674" y="497" type="line"/>
      <point x="587" y="497" type="line"/>
      <point x="657" y="700" type="line"/>
      <point x="559" y="700" type="line"/>
      <point x="489" y="497" type="line"/>
      <point x="330" y="497" type="line"/>
      <point x="399" y="700" type="line"/>
      <point x="301" y="700" type="line"/>
      <point x="231" y="497" type="line"/>
      <point x="91" y="497" type="line"/>
      <point x="91" y="413" type="line"/>
      <point x="202" y="413" type="line"/>
      <point x="159" y="287" type="line"/>
      <point x="44" y="287" type="line"/>
      <point x="44" y="203" type="line"/>
      <point x="130" y="203" type="line"/>
    </contour>
    <contour>
      <point x="257" y="287" type="line"/>
      <point x="301" y="413" type="line"/>
      <point x="460" y="413" type="line"/>
      <point x="417" y="287" type="line"/>
    </contour>
  </outline>
</glyph>
<glyph name="dollar" format="2">
  <advance width="570"/>
  <unicode hex="0024"/>
  <outline>
    <contour>
      <point x="252" y="-67" type="line"/>
      <point x="314" y="-67" type="line"/>
      <point x="314" y="22" type="line"/>
      <point x="444" y="31"/>
      <point x="527" y="106"/>
      <point x="527" y="217" type="curve" smooth="yes"/>
      <point x="527" y="302"/>
      <point x="479" y="353"/>
      <point x="374" y="382" type="curve" smooth="yes"/>
      <point x="314" y="398" type="line"/>
      <point x="314" y="584" type="line"/>
      <point x="364" y="575"/>
      <point x="414" y="554"/>
      <point x="461" y="520" type="curve"/>
      <point x="510" y="603" type="line"/>
      <point x="453" y="645"/>
      <point x="385" y="671"/>
      <point x="314" y="679" type="curve"/>
      <point x="314" y="767" type="line"/>
      <point x="252" y="767" type="line"/>
      <point x="252" y="680" type="line"/>
      <point x="122" y="674"/>
      <point x="43" y="603"/>
      <point x="43" y="493" type="curve" smooth="yes"/>
      <point x="43" y="408"/>
      <point x="92" y="353"/>
      <point x="191" y="325" type="curve" smooth="yes"/>
      <point x="252" y="310" type="line"/>
      <point x="252" y="115" type="line"/>
      <point x="195" y="122"/>
      <point x="138" y="145"/>
      <point x="85" y="182" type="curve"/>
      <point x="34" y="97" type="line"/>
      <point x="96" y="53"/>
      <point x="174" y="27"/>
      <point x="252" y="21" type="curve"/>
    </contour>
    <contour>
      <point x="252" y="412" type="line"/>
      <point x="233" y="418" type="line" smooth="yes"/>
      <point x="169" y="435"/>
      <point x="145" y="459"/>
      <point x="145" y="501" type="curve" smooth="yes"/>
      <point x="145" y="550"/>
      <point x="186" y="584"/>
      <point x="252" y="587" type="curve"/>
    </contour>
    <contour>
      <point x="314" y="115" type="curve"/>
      <point x="314" y="296" type="line"/>
      <point x="332" y="290" type="line" smooth="yes"/>
      <point x="400" y="267"/>
      <point x="422" y="247"/>
      <point x="422" y="205" type="curve" smooth="yes"/>
      <point x="422" y="155"/>
      <point x="381" y="120"/>
    </contour>
  </outline>
</glyph>
<glyph name="ampersand" format="2">
  <advance width="681"/>
  <unicode hex="0026"/>
  <outline>
    <contour>
      <point x="270" y="-11" type="curve" smooth="yes"/>
      <point x="353" y="-11"/>
      <point x="426" y="16"/>
      <point x="484" y="67" type="curve"/>
      <point x="520" y="37"/>
      <point x="556" y="8"/>
      <point x="590" y="-18" type="curve"/>
      <point x="659" y="63" type="line"/>
      <point x="625" y="88"/>
      <point x="587" y="118"/>
      <point x="550" y="150" type="curve"/>
      <point x="589" y="208"/>
      <point x="616" y="281"/>
      <point x="635" y="368" type="curve"/>
      <point x="535" y="384" type="line"/>
      <point x="523" y="320"/>
      <point x="503" y="263"/>
      <point x="475" y="215" type="curve"/>
      <point x="420" y="266"/>
      <point x="366" y="319"/>
      <point x="321" y="367" type="curve"/>
      <point x="372" y="398" type="line" smooth="yes"/>
      <point x="442" y="440"/>
      <point x="476" y="491"/>
      <point x="476" y="553" type="curve" smooth="yes"/>
      <point x="476" y="645"/>
      <point x="400" y="711"/>
      <point x="298" y="711" type="curve" smooth="yes"/>
      <point x="191" y="711"/>
      <point x="112" y="638"/>
      <point x="112" y="539" type="curve" smooth="yes"/>
      <point x="112" y="485"/>
      <point x="128" y="441"/>
      <point x="172" y="384" type="curve"/>
      <point x="66" y="326"/>
      <point x="29" y="273"/>
      <point x="29" y="188" type="curve" smooth="yes"/>
      <point x="29" y="69"/>
      <point x="126" y="-11"/>
    </contour>
    <contour>
      <point x="265" y="434" type="line"/>
      <point x="228" y="479"/>
      <point x="215" y="507"/>
      <point x="215" y="541" type="curve" smooth="yes"/>
      <point x="215" y="590"/>
      <point x="249" y="625"/>
      <point x="295" y="625" type="curve" smooth="yes"/>
      <point x="337" y="625"/>
      <point x="372" y="593"/>
      <point x="372" y="550" type="curve" smooth="yes"/>
      <point x="372" y="514"/>
      <point x="352" y="486"/>
      <point x="312" y="461" type="curve" smooth="yes"/>
    </contour>
    <contour>
      <point x="278" y="81" type="curve" smooth="yes"/>
      <point x="191" y="81"/>
      <point x="135" y="125"/>
      <point x="135" y="195" type="curve" smooth="yes"/>
      <point x="135" y="245"/>
      <point x="159" y="276"/>
      <point x="228" y="315" type="curve"/>
      <point x="281" y="255"/>
      <point x="345" y="192"/>
      <point x="411" y="132" type="curve"/>
      <point x="374" y="97"/>
      <point x="329" y="81"/>
    </contour>
  </outline>
</glyph>
<glyph name="parenleft" format="2">
  <advance width="414"/>
  <unicode hex="0028"/>
  <outline>
    <contour>
      <point x="312" y="-222" type="curve"/>
      <point x="371" y="-150" type="line"/>
      <point x="242" y="-67"/>
      <point x="171" y="72"/>
      <point x="171" y="245" type="curve" smooth="yes"/>
      <point x="171" y="417"/>
      <point x="242" y="556"/>
      <point x="371" y="639" type="curve"/>
      <point x="312" y="712" type="line"/>
      <point x="154" y="615"/>
      <point x="69" y="450"/>
      <point x="69" y="245" type="curve" smooth="yes"/>
      <point x="69" y="40"/>
      <point x="154" y="-125"/>
    </contour>
  </outline>
</glyph>
<glyph name="asterisk" format="2">
  <advance width="472"/>
  <unicode hex="002A"/>
  <outline>
    <contour>
      <point x="200" y="325" type="line"/>
      <point x="272" y="325" type="line"/>
      <point x="270" y="449" type="line"/>
      <point x="374" y="381" type="line"/>
      <point x="415" y="445" type="line"/>
      <point x="303" y="514" type="line"/>
      <point x="414" y="583" type="line"/>
      <point x="373" y="645" type="line"/>
      <point x="271" y="579" type="line"/>
      <point x="272" y="700" type="line"/>
      <point x="200" y="700" type="line"/>
      <point x="201" y="579" type="line"/>
      <point x="99" y="645" type="line"/>
      <point x="59" y="583" type="line"/>
      <point x="169" y="514" type="line"/>
      <point x="58" y="445" type="line"/>
      <point x="98" y="381" type="line"/>
      <point x="202" y="449" type="line"/>
    </contour>
  </outline>
</glyph>
<glyph name="plus" format="2">
  <advance width="600"/>
  <unicode hex="002B"/>
  <outline>
    <contour>
      <point x="255" y="135" type="line"/>
      <point x="345" y="135" type="line"/>
      <point x="345" y="313" type="line"/>
      <point x="510" y="313" type="line"/>
      <point x="510" y="400" type="line"/>
      <point x="345" y="400" type="line"/>
      <point x="345" y="578" type="line"/>
      <point x="255" y="578" type="line"/>
      <point x="255" y="400" type="line"/>
      <point x="90" y="400" type="line"/>
      <point x="90" y="313" type="line"/>
      <point x="255" y="313" type="line"/>
    </contour>
  </outline>
</glyph>
<glyph name="comma" format="2">
  <advance width="250"/>
  <unicode hex="002C"/>
  <outline>
    <contour>
      <point x="23" y="-166" type="line"/>
      <point x="107" y="-166" type="line"/>
      <point x="204" y="98" type="line"/>
      <point x="90" y="98" type="line"/>
    </contour>
  </outline>
</glyph>
<glyph name="period" format="2">
  <advance width="250"/>
  <unicode hex="002E"/>
  <outline>
    <contour>
      <point x="125" y="-9" type="curve" smooth="yes"/>
      <point x="164" y="-9"/>
      <point x="195" y="23"/>
      <point x="195" y="63" type="curve" smooth="yes"/>
      <point x="195" y="103"/>
      <point x="164" y="136"/>
      <point x="125" y="136" type="curve" smooth="yes"/>
      <point x="86" y="136"/>
      <point x="55" y="103"/>
      <point x="55" y="63" type="curve" smooth="yes"/>
      <point x="55" y="23"/>
      <point x="86" y="-9"/>
    </contour>
  </outline>
</glyph>
<glyph name="slash" format="2">
  <advance width="497"/>
  <unicode hex="002F"/>
  <outline>
    <contour>
      <point x="-50" y="-209" type="line"/>
      <point x="59" y="-209" type="line"/>
      <point x="460" y="700" type="line"/>
      <point x="350" y="700" type="line"/>
    </contour>
  </outline>
</glyph>
<glyph name="zero" format="2">
  <advance width="674"/>
  <unicode hex="0030"/>
  <outline>
    <contour>
      <point x="337" y="-10" type="curve" smooth="yes"/>
      <point x="507" y="-10"/>
      <point x="623" y="136"/>
      <point x="623" y="350" type="curve" smooth="yes"/>
      <point x="623" y="565"/>
      <point x="507" y="711"/>
      <point x="337" y="711" type="curve" smooth="yes"/>
      <point x="167" y="711"/>
      <point x="50" y="565"/>
      <point x="50" y="350" type="curve" smooth="yes"/>
      <point x="50" y="136"/>
      <point x="167" y="-10"/>
    </contour>
    <contour>
      <point x="337" y="87" type="curve" smooth="yes"/>
      <point x="229" y="87"/>
      <point x="159" y="190"/>
      <point x="159" y="350" type="curve" smooth="yes"/>
      <point x="159" y="511"/>
      <point x="229" y="614"/>
      <point x="337" y="614" type="curve" smooth="yes"/>
      <point x="445" y="614"/>
      <point x="514" y="511"/>
      <point x="514" y="350" type="curve" smooth="yes"/>
      <point x="514" y="190"/>
      <point x="445" y="87"/>
    </contour>
  </outline>
</glyph>
<glyph name="four" format="2">
  <advance width="652"/>
  <unicode hex="0034"/>
  <outline>
    <contour>
      <point x="419" y="0" type="line"/>
      <point x="531" y="0" type="line"/>
      <point x="531" y="173" type="line"/>
      <point x="623" y="173" type="line"/>
      <point x="623" y="268" type="line"/>
      <point x="531" y="268" type="line"/>
      <point x="531" y="700" type="line"/>
      <point x="403" y="700" type="line"/>
      <point x="34" y="263" type="line"/>
      <point x="34" y="173" type="line"/>
      <point x="419" y="173" type="line"/>
    </contour>
    <contour>
      <point x="164" y="268" type="line"/>
      <point x="419" y="572" type="line"/>
      <point x="419" y="268" type="line"/>
    </contour>
  </outline>
</glyph>
<glyph name="nine" format="2">
  <advance width="633"/>
  <unicode hex="0039"/>
  <outline>
    <contour>
      <point x="291" y="711" type="curve" smooth="yes"/>
      <point x="149" y="711"/>
      <point x="44" y="613"/>
      <point x="44" y="480" type="curve" smooth="yes"/>
      <point x="44" y="355"/>
      <point x="142" y="265"/>
      <point x="279" y="265" type="curve" smooth="yes"/>
      <point x="353" y="265"/>
      <point x="424" y="302"/>
      <point x="472" y="368" type="curve"/>
      <point x="470" y="192"/>
      <point x="394" y="88"/>
      <point x="264" y="88" type="curve" smooth="yes"/>
      <point x="213" y="88"/>
      <point x="169" y="102"/>
      <point x="129" y="131" type="curve"/>
      <point x="69" y="50" type="line"/>
      <point x="115" y="13"/>
      <point x="188" y="-10"/>
      <point x="255" y="-10" type="curve" smooth="yes"/>
      <point x="451" y="-10"/>
      <point x="581" y="141"/>
      <point x="581" y="369" type="curve" smooth="yes"/>
      <point x="581" y="572"/>
      <point x="463" y="711"/>
    </contour>
    <contour>
      <point x="296" y="351" type="curve" smooth="yes"/>
      <point x="211" y="351"/>
      <point x="152" y="406"/>
      <point x="152" y="482" type="curve" smooth="yes"/>
      <point x="152" y="560"/>
      <point x="213" y="617"/>
      <point x="295" y="617" type="curve" smooth="yes"/>
      <point x="384" y="617"/>
      <point x="449" y="545"/>
      <point x="467" y="435" type="curve"/>
      <point x="423" y="383"/>
      <point x="362" y="351"/>
    </contour>
  </outline>
</glyph>
<glyph name="less" format="2">
  <advance width="600"/>
  <unicode hex="003C"/>
  <outline>
    <contour>
      <point x="420" y="76" type="line"/>
      <point x="480" y="145" type="line"/>
      <point x="224" y="350" type="line"/>
      <point x="480" y="552" type="line"/>
      <point x="422" y="620" type="line"/>
      <point x="87" y="348" type="line"/>
    </contour>
  </outline>
</glyph>
<glyph name="question" format="2">
  <advance width="523"/>
  <unicode hex="003F"/>
  <outline>
    <contour>
      <point x="188" y="217" type="curve"/>
      <point x="281" y="217" type="line"/>
      <point x="278" y="269"/>
      <point x="293" y="299"/>
      <point x="335" y="330" type="curve" smooth="yes"/>
      <point x="363" y="351" type="line" smooth="yes"/>
      <point x="451" y="414"/>
      <point x="479" y="457"/>
      <point x="479" y="528" type="curve" smooth="yes"/>
      <point x="479" y="631"/>
      <point x="385" y="709"/>
      <point x="262" y="709" type="curve" smooth="yes"/>
      <point x="160" y="709"/>
      <point x="73" y="656"/>
      <point x="27" y="568" type="curve"/>
      <point x="114" y="525" type="line"/>
      <point x="146" y="581"/>
      <point x="198" y="613"/>
      <point x="257" y="613" type="curve" smooth="yes"/>
      <point x="323" y="613"/>
      <point x="372" y="574"/>
      <point x="372" y="523" type="curve" smooth="yes"/>
      <point x="372" y="489"/>
      <point x="354" y="462"/>
      <point x="309" y="427" type="curve" smooth="yes"/>
      <point x="263" y="392" type="line" smooth="yes"/>
      <point x="202" y="346"/>
      <point x="183" y="301"/>
    </contour>
    <contour>
      <point x="236" y="-9" type="curve" smooth="yes"/>
      <point x="274" y="-9"/>
      <point x="304" y="22"/>
      <point x="304" y="61" type="curve" smooth="yes"/>
      <point x="304" y="100"/>
      <point x="274" y="131"/>
      <point x="236" y="131" type="curve" smooth="yes"/>
      <point x="197" y="131"/>
      <point x="166" y="100"/>
      <point x="166" y="61" type="curve" smooth="yes"/>
      <point x="166" y="22"/>
      <point x="197" y="-9"/>
    </contour>
  </outline>
</glyph>
<glyph name="at" format="2">
  <advance width="774"/>
  <unicode hex="0040"/>
  <outline>
    <contour>
      <point x="402" y="-144" type="curve" smooth="yes"/>
      <point x="466" y="-144"/>
      <point x="525" y="-129"/>
      <point x="583" y="-100" type="curve"/>
      <point x="562" y="-49" type="line"/>
      <point x="514" y="-75"/>
      <point x="461" y="-88"/>
      <point x="403" y="-88" type="curve" smooth="yes"/>
      <point x="233" y="-88"/>
      <point x="112" y="37"/>
      <point x="112" y="211" type="curve" smooth="yes"/>
      <point x="112" y="389"/>
      <point x="236" y="526"/>
      <point x="397" y="526" type="curve" smooth="yes"/>
      <point x="548" y="526"/>
      <point x="661" y="416"/>
      <point x="661" y="269" type="curve" smooth="yes"/>
      <point x="661" y="176"/>
      <point x="616" y="108"/>
      <point x="554" y="108" type="curve" smooth="yes"/>
      <point x="517" y="108"/>
      <point x="500" y="131"/>
      <point x="509" y="171" type="curve" smooth="yes"/>
      <point x="548" y="370" type="line"/>
      <point x="473" y="370" type="line"/>
      <point x="469" y="349" type="line"/>
      <point x="445" y="370"/>
      <point x="413" y="383"/>
      <point x="378" y="383" type="curve" smooth="yes"/>
      <point x="286" y="383"/>
      <point x="212" y="303"/>
      <point x="212" y="202" type="curve" smooth="yes"/>
      <point x="212" y="116"/>
      <point x="272" y="49"/>
      <point x="350" y="49" type="curve" smooth="yes"/>
      <point x="384" y="49"/>
      <point x="420" y="64"/>
      <point x="450" y="91" type="curve"/>
      <point x="467" y="65"/>
      <point x="500" y="51"/>
      <point x="544" y="51" type="curve" smooth="yes"/>
      <point x="646" y="51"/>
      <point x="720" y="144"/>
      <point x="720" y="274" type="curve" smooth="yes"/>
      <point x="720" y="447"/>
      <point x="581" y="579"/>
      <point x="400" y="579" type="curve" smooth="yes"/>
      <point x="202" y="579"/>
      <point x="54" y="421"/>
      <point x="54" y="207" type="curve" smooth="yes"/>
      <point x="54" y="5"/>
      <point x="202" y="-144"/>
    </contour>
    <contour>
      <point x="367" y="113" type="curve" smooth="yes"/>
      <point x="319" y="113"/>
      <point x="284" y="152"/>
      <point x="284" y="209" type="curve" smooth="yes"/>
      <point x="284" y="268"/>
      <point x="327" y="317"/>
      <point x="379" y="317" type="curve" smooth="yes"/>
      <point x="412" y="317"/>
      <point x="439" y="303"/>
      <point x="456" y="278" type="curve"/>
      <point x="437" y="180" type="line" smooth="yes"/>
      <point x="435" y="167"/>
      <point x="434" y="154"/>
      <point x="435" y="142" type="curve"/>
      <point x="414" y="123"/>
      <point x="392" y="113"/>
    </contour>
  </outline>
</glyph>
<glyph name="B" format="2">
  <advance width="696"/>
  <unicode hex="0042"/>
  <outline>
    <contour>
      <point x="84" y="0" type="line"/>
      <point x="409" y="0" type="line" smooth="yes"/>
      <point x="547" y="0"/>
      <point x="640" y="79"/>
      <point x="640" y="195" type="curve" smooth="yes"/>
      <point x="640" y="275"/>
      <point x="586" y="336"/>
      <point x="502" y="361" type="curve"/>
      <point x="572" y="388"/>
      <point x="616" y="445"/>
      <point x="616" y="516" type="curve" smooth="yes"/>
      <point x="616" y="625"/>
      <point x="527" y="700"/>
      <point x="396" y="700" type="curve" smooth="yes"/>
      <point x="84" y="700" type="line"/>
    </contour>
    <contour>
      <point x="204" y="405" type="line"/>
      <point x="204" y="602" type="line"/>
      <point x="383" y="602" type="line" smooth="yes"/>
      <point x="452" y="602"/>
      <point x="496" y="563"/>
      <point x="496" y="504" type="curve" smooth="yes"/>
      <point x="496" y="444"/>
      <point x="451" y="405"/>
      <point x="383" y="405" type="curve" smooth="yes"/>
    </contour>
    <contour>
      <point x="204" y="98" type="line"/>
      <point x="204" y="313" type="line"/>
      <point x="394" y="313" type="line" smooth="yes"/>
      <point x="471" y="313"/>
      <point x="519" y="271"/>
      <point x="519" y="206" type="curve" smooth="yes"/>
      <point x="519" y="141"/>
      <point x="470" y="98"/>
      <point x="394" y="98" type="curve" smooth="yes"/>
    </contour>
  </outline>
</glyph>
<glyph name="C" format="2">
  <advance width="723"/>
  <unicode hex="0043"/>
  <anchor x="405" y="700" name="top"/>
  <anchor x="408" y="0" name="bottom"/>
  <outline>
    <contour>
      <point x="413" y="-11" type="curve" smooth="yes"/>
      <point x="520" y="-11"/>
      <point x="622" y="35"/>
      <point x="686" y="114" type="curve"/>
      <point x="606" y="192" type="line"/>
      <point x="556" y="130"/>
      <point x="487" y="97"/>
      <point x="413" y="97" type="curve" smooth="yes"/>
      <point x="277" y="97"/>
      <point x="174" y="206"/>
      <point x="174" y="350" type="curve" smooth="yes"/>
      <point x="174" y="494"/>
      <point x="277" y="603"/>
      <point x="413" y="603" type="curve" smooth="yes"/>
      <point x="487" y="603"/>
      <point x="556" y="570"/>
      <point x="606" y="508" type="curve"/>
      <point x="686" y="586" type="line"/>
      <point x="622" y="665"/>
      <point x="520" y="711"/>
      <point x="413" y="711" type="curve" smooth="yes"/>
      <point x="209" y="711"/>
      <point x="51" y="553"/>
      <point x="51" y="350" type="curve" smooth="yes"/>
      <point x="51" y="147"/>
      <point x="209" y="-11"/>
    </contour>
  </outline>
</glyph>
<glyph name="D" format="2">
  <advance width="742"/>
  <unicode hex="0044"/>
  <anchor x="366" y="700" name="top"/>
  <outline>
    <contour>
      <point x="204" y="104" type="line"/>
      <point x="204" y="596" type="line"/>
      <point x="343" y="596" type="line" smooth="yes"/>
      <point x="469" y="596"/>
      <point x="568" y="489"/>
      <point x="568" y="350" type="curve" smooth="yes"/>
      <point x="568" y="211"/>
      <point x="469" y="104"/>
      <point x="343" y="104" type="curve" smooth="yes"/>
    </contour>
    <contour>
      <point x="84" y="0" type="line"/>
      <point x="340" y="0" type="line" smooth="yes"/>
      <point x="541" y="0"/>
      <point x="691" y="153"/>
      <point x="691" y="350" type="curve" smooth="yes"/>
      <point x="691" y="547"/>
      <point x="541" y="700"/>
      <point x="340" y="700" type="curve" smooth="yes"/>
      <point x="84" y="700" type="line"/>
    </contour>
  </outline>
</glyph>
<glyph name="G" format="2">
  <advance width="802"/>
  <unicode hex="0047"/>
  <anchor x="405" y="700" name="top"/>
  <anchor x="410" y="0" name="bottom"/>
  <outline>
    <contour>
      <point x="411" y="-11" type="curve" smooth="yes"/>
      <point x="607" y="-11"/>
      <point x="752" y="142"/>
      <point x="752" y="343" type="curve" smooth="yes"/>
      <point x="752" y="382" type="line"/>
      <point x="417" y="382" type="line"/>
      <point x="417" y="279" type="line"/>
      <point x="625" y="279" type="line"/>
      <point x="610" y="173"/>
      <point x="525" y="96"/>
      <point x="413" y="96" type="curve" smooth="yes"/>
      <point x="277" y="96"/>
      <point x="174" y="206"/>
      <point x="174" y="350" type="curve" smooth="yes"/>
      <point x="174" y="493"/>
      <point x="275" y="603"/>
      <point x="410" y="603" type="curve" smooth="yes"/>
      <point x="488" y="603"/>
      <point x="561" y="571"/>
      <point x="609" y="511" type="curve"/>
      <point x="693" y="586" type="line"/>
      <point x="626" y="667"/>
      <point x="521" y="711"/>
      <point x="410" y="711" type="curve" smooth="yes"/>
      <point x="208" y="711"/>
      <point x="51" y="552"/>
      <point x="51" y="350" type="curve" smooth="yes"/>
      <point x="51" y="148"/>
      <point x="209" y="-11"/>
    </contour>
  </outline>
</glyph>
<glyph name="I" format="2">
  <advance width="278"/>
  <unicode hex="0049"/>
  <anchor x="139" y="700" name="top"/>
  <anchor x="199" y="0" name="bottom"/>
  <outline>
    <contour>
      <point x="79" y="0" type="line"/>
      <point x="199" y="0" type="line"/>
      <point x="199" y="700" type="line"/>
      <point x="79" y="700" type="line"/>
    </contour>
  </outline>
</glyph>
<glyph name="J" format="2">
  <advance width="632"/>
  <unicode hex="004A"/>
  <anchor x="498" y="700" name="top"/>
  <outline>
    <contour>
      <point x="288" y="-11" type="curve" smooth="yes"/>
      <point x="454" y="-11"/>
      <point x="562" y="99"/>
      <point x="562" y="269" type="curve" smooth="yes"/>
      <point x="562" y="700" type="line"/>
      <point x="442" y="700" type="line"/>
      <point x="442" y="271" type="line" smooth="yes"/>
      <point x="442" y="165"/>
      <point x="381" y="96"/>
      <point x="289" y="96" type="curve" smooth="yes"/>
      <point x="213" y="96"/>
      <point x="161" y="139"/>
      <point x="132" y="225" type="curve"/>
      <point x="22" y="184" type="line"/>
      <point x="61" y="60"/>
      <point x="158" y="-11"/>
    </contour>
  </outline>
</glyph>
<glyph name="L" format="2">
  <advance width="626"/>
  <unicode hex="004C"/>
  <anchor x="138" y="700" name="top"/>
  <anchor x="341" y="0" name="bottom"/>
  <outline>
    <contour>
      <point x="84" y="0" type="line"/>
      <point x="577" y="0" type="line"/>
      <point x="577" y="104" type="line"/>
      <point x="204" y="104" type="line"/>
      <point x="204" y="700" type="line"/>
      <point x="84" y="700" type="line"/>
    </contour>
  </outline>
</glyph>
<glyph name="M" format="2">
  <advance width="889"/>
  <unicode hex="004D"/>
  <outline>
    <contour>
      <point x="84" y="0" type="line"/>
      <point x="195" y="0" type="line"/>
      <point x="195" y="551" type="line"/>
      <point x="444" y="50" type="line"/>
      <point x="692" y="548" type="line"/>
      <point x="692" y="0" type="line"/>
      <point x="805" y="0" type="line"/>
      <point x="805" y="700" type="line"/>
      <point x="649" y="700" type="line"/>
      <point x="445" y="275" type="line"/>
      <point x="240" y="700" type="line"/>
      <point x="84" y="700" type="line"/>
    </contour>
  </outline>
</glyph>
<glyph name="N" format="2">
  <advance width="761"/>
  <unicode hex="004E"/>
  <anchor x="379" y="700" name="top"/>
  <anchor x="379" y="0" name="bottom"/>
  <outline>
    <contour>
      <point x="84" y="0" type="line"/>
      <point x="197" y="0" type="line"/>
      <point x="195" y="523" type="line"/>
      <point x="570" y="0" type="line"/>
      <point x="677" y="0" type="line"/>
      <point x="677" y="700" type="line"/>
      <point x="564" y="700" type="line"/>
      <point x="566" y="191" type="line"/>
      <point x="201" y="700" type="line"/>
      <point x="84" y="700" type="line"/>
    </contour>
  </outline>
</glyph>
<glyph name="O" format="2">
  <advance width="812"/>
  <unicode hex="004F"/>
  <anchor x="405" y="700" name="top"/>
  <outline>
    <contour>
      <point x="406" y="-11" type="curve" smooth="yes"/>
      <point x="604" y="-11"/>
      <point x="760" y="148"/>
      <point x="760" y="350" type="curve" smooth="yes"/>
      <point x="760" y="552"/>
      <point x="604" y="711"/>
      <point x="406" y="711" type="curve" smooth="yes"/>
      <point x="208" y="711"/>
      <point x="52" y="552"/>
      <point x="52" y="350" type="curve" smooth="yes"/>
      <point x="52" y="148"/>
      <point x="208" y="-11"/>
    </contour>
    <contour>
      <point x="406" y="97" type="curve" smooth="yes"/>
      <point x="275" y="97"/>
      <point x="174" y="206"/>
      <point x="174" y="350" type="curve" smooth="yes"/>
      <point x="174" y="494"/>
      <point x="275" y="603"/>
      <point x="406" y="603" type="curve" smooth="yes"/>
      <point x="537" y="603"/>
      <point x="637" y="494"/>
      <point x="637" y="350" type="curve" smooth="yes"/>
      <point x="637" y="206"/>
      <point x="537" y="97"/>
    </contour>
  </outline>
</glyph>
<glyph name="Q" format="2">
  <advance width="812"/>
  <unicode hex="0051"/>
  <outline>
    <contour>
      <point x="621" y="-37" type="line"/>
      <point x="730" y="-6" type="line"/>
      <point x="652" y="89" type="line"/>
      <point x="719" y="154"/>
      <point x="760" y="247"/>
      <point x="760" y="350" type="curve" smooth="yes"/>
      <point x="760" y="552"/>
      <point x="604" y="711"/>
      <point x="406" y="711" type="curve" smooth="yes"/>
      <point x="208" y="711"/>
      <point x="52" y="552"/>
      <point x="52" y="350" type="curve" smooth="yes"/>
      <point x="52" y="148"/>
      <point x="208" y="-11"/>
      <point x="406" y="-11" type="curve" smooth="yes"/>
      <point x="465" y="-11"/>
      <point x="519" y="3"/>
      <point x="567" y="29" type="curve"/>
    </contour>
    <contour>
      <point x="406" y="97" type="curve" smooth="yes"/>
      <point x="275" y="97"/>
      <point x="174" y="206"/>
      <point x="174" y="350" type="curve" smooth="yes"/>
      <point x="174" y="494"/>
      <point x="275" y="603"/>
      <point x="406" y="603" type="curve" smooth="yes"/>
      <point x="537" y="603"/>
      <point x="637" y="494"/>
      <point x="637" y="350" type="curve" smooth="yes"/>
      <point x="637" y="283"/>
      <point x="615" y="225"/>
      <point x="579" y="181" type="curve"/>
      <point x="516" y="257" type="line"/>
      <point x="407" y="226" type="line"/>
      <point x="495" y="119" type="line"/>
      <point x="469" y="105"/>
      <point x="438" y="97"/>
    </contour>
  </outline>
</glyph>
<glyph name="R" format="2">
  <advance width="672"/>
  <unicode hex="0052"/>
  <anchor x="336" y="700" name="top"/>
  <anchor x="339" y="0" name="bottom"/>
  <outline>
    <contour>
      <point x="84" y="0" type="line"/>
      <point x="204" y="0" type="line"/>
      <point x="204" y="280" type="line"/>
      <point x="370" y="280" type="line"/>
      <point x="505" y="0" type="line"/>
      <point x="638" y="0" type="line"/>
      <point x="490" y="296" type="line"/>
      <point x="575" y="326"/>
      <point x="629" y="397"/>
      <point x="629" y="488" type="curve" smooth="yes"/>
      <point x="629" y="614"/>
      <point x="534" y="700"/>
      <point x="395" y="700" type="curve" smooth="yes"/>
      <point x="84" y="700" type="line"/>
    </contour>
    <contour>
      <point x="204" y="376" type="line"/>
      <point x="204" y="599" type="line"/>
      <point x="384" y="599" type="line" smooth="yes"/>
      <point x="459" y="599"/>
      <point x="508" y="555"/>
      <point x="508" y="487" type="curve" smooth="yes"/>
      <point x="508" y="420"/>
      <point x="459" y="376"/>
      <point x="384" y="376" type="curve" smooth="yes"/>
    </contour>
  </outline>
</glyph>
<glyph name="S" format="2">
  <advance width="637"/>
  <unicode hex="0053"/>
  <note>
Version created Fri Aug  3 17:49:29 2018
</note>
  <anchor x="299" y="701" name="top"/>
  <anchor x="316" y="1" name="bottom"/>
  <outline>
    <contour>
      <point x="318" y="-11" type="curve"/>
      <point x="485" y="-11"/>
      <point x="599" y="80"/>
      <point x="599" y="209" type="curve"/>
      <point x="599" y="315"/>
      <point x="533" y="377"/>
      <point x="392" y="402" type="curve" smooth="yes"/>
      <point x="267" y="423" type="line" smooth="yes"/>
      <point x="191" y="435"/>
      <point x="159" y="461"/>
      <point x="159" y="512" type="curve" smooth="yes"/>
      <point x="159" y="569"/>
      <point x="215" y="612"/>
      <point x="299" y="612" type="curve" smooth="yes"/>
      <point x="378" y="612"/>
      <point x="453" y="584"/>
      <point x="523" y="531" type="curve"/>
      <point x="584" y="621" type="line"/>
      <point x="504" y="680"/>
      <point x="408" y="711"/>
      <point x="303" y="711" type="curve"/>
      <point x="146" y="711"/>
      <point x="45" y="627"/>
      <point x="45" y="500" type="curve"/>
      <point x="45" y="404"/>
      <point x="104" y="344"/>
      <point x="225" y="322" type="curve" smooth="yes"/>
      <point x="354" y="300" type="line" smooth="yes"/>
      <point x="447" y="284"/>
      <point x="481" y="257"/>
      <point x="481" y="200" type="curve" smooth="yes"/>
      <point x="481" y="135"/>
      <point x="417" y="88"/>
      <point x="325" y="88" type="curve" smooth="yes"/>
      <point x="244" y="88"/>
      <point x="179" y="116"/>
      <point x="89" y="190" type="curve"/>
      <point x="24" y="102" type="line"/>
      <point x="113" y="27"/>
      <point x="208" y="-11"/>
    </contour>
  </outline>
</glyph>
<glyph name="T" format="2">
  <advance width="638"/>
  <unicode hex="0054"/>
  <anchor x="319" y="700" name="top"/>
  <anchor x="319" y="0" name="bottom"/>
  <outline>
    <contour>
      <point x="259" y="0" type="line"/>
      <point x="379" y="0" type="line"/>
      <point x="379" y="596" type="line"/>
      <point x="613" y="596" type="line"/>
      <point x="613" y="700" type="line"/>
      <point x="25" y="700" type="line"/>
      <point x="25" y="596" type="line"/>
      <point x="259" y="596" type="line"/>
    </contour>
  </outline>
</glyph>
<glyph name="U" format="2">
  <advance width="728"/>
  <unicode hex="0055"/>
  <anchor x="362" y="700" name="top"/>
  <anchor x="452" y="0" name="bottom"/>
  <outline>
    <contour>
      <point x="364" y="-11" type="curve" smooth="yes"/>
      <point x="544" y="-11"/>
      <point x="658" y="109"/>
      <point x="658" y="300" type="curve" smooth="yes"/>
      <point x="658" y="700" type="line"/>
      <point x="538" y="700" type="line"/>
      <point x="538" y="300" type="line" smooth="yes"/>
      <point x="538" y="177"/>
      <point x="470" y="97"/>
      <point x="364" y="97" type="curve" smooth="yes"/>
      <point x="258" y="97"/>
      <point x="190" y="177"/>
      <point x="190" y="300" type="curve" smooth="yes"/>
      <point x="190" y="700" type="line"/>
      <point x="70" y="700" type="line"/>
      <point x="70" y="300" type="line" smooth="yes"/>
      <point x="70" y="109"/>
      <point x="184" y="-11"/>
    </contour>
  </outline>
</glyph>
<glyph name="X" format="2">
  <advance width="700"/>
  <unicode hex="0058"/>
  <outline>
    <contour>
      <point x="11" y="0" type="line"/>
      <point x="149" y="0" type="line"/>
      <point x="348" y="274" type="line"/>
      <point x="545" y="0" type="line"/>
      <point x="689" y="0" type="line"/>
      <point x="420" y="360" type="line"/>
      <point x="673" y="700" type="line"/>
      <point x="534" y="700" type="line"/>
      <point x="353" y="450" type="line"/>
      <point x="170" y="700" type="line"/>
      <point x="27" y="700" type="line"/>
      <point x="280" y="363" type="line"/>
    </contour>
  </outline>
</glyph>
<glyph name="Y" format="2">
  <advance width="688"/>
  <unicode hex="0059"/>
  <anchor x="344" y="700" name="top"/>
  <outline>
    <contour>
      <point x="284" y="0" type="line"/>
      <point x="404" y="0" type="line"/>
      <point x="404" y="276" type="line"/>
      <point x="682" y="700" type="line"/>
      <point x="551" y="700" type="line"/>
      <point x="347" y="380" type="line"/>
      <point x="145" y="700" type="line"/>
      <point x="6" y="700" type="line"/>
      <point x="284" y="276" type="line"/>
    </contour>
  </outline>
</glyph>
<glyph name="a" format="2">
  <advance width="550"/>
  <unicode hex="0061"/>
  <note>
Version created Mon Aug  6 16:22:34 2018
</note>
  <anchor x="278" y="501" name="top"/>
  <anchor x="483" y="0" name="bottom"/>
  <outline>
    <contour>
      <point x="222" y="-9" type="curve" smooth="yes"/>
      <point x="280" y="-9"/>
      <point x="328" y="10"/>
      <point x="371" y="52" type="curve"/>
      <point x="371" y="0" type="line"/>
      <point x="483" y="0" type="line"/>
      <point x="483" y="327" type="line" smooth="yes"/>
      <point x="483" y="443"/>
      <point x="409" y="509"/>
      <point x="278" y="509" type="curve" smooth="yes"/>
      <point x="211" y="509"/>
      <point x="145" y="492"/>
      <point x="70" y="458" type="curve"/>
      <point x="110" y="376" type="line"/>
      <point x="168" y="403"/>
      <point x="214" y="415"/>
      <point x="256" y="415" type="curve" smooth="yes"/>
      <point x="333" y="415"/>
      <point x="371" y="381"/>
      <point x="371" y="315" type="curve" smooth="yes"/>
      <point x="371" y="259" type="line"/>
      <point x="327" y="281"/>
      <point x="283" y="291"/>
      <point x="236" y="291" type="curve" smooth="yes"/>
      <point x="118" y="291"/>
      <point x="44" y="234"/>
      <point x="44" y="144" type="curve" smooth="yes"/>
      <point x="44" y="54"/>
      <point x="117" y="-9"/>
    </contour>
    <contour>
      <point x="150" y="146" type="curve" smooth="yes"/>
      <point x="150" y="191"/>
      <point x="191" y="218"/>
      <point x="256" y="218" type="curve" smooth="yes"/>
      <point x="299" y="218"/>
      <point x="335" y="211"/>
      <point x="371" y="194" type="curve"/>
      <point x="371" y="113" type="line"/>
      <point x="337" y="84"/>
      <point x="298" y="71"/>
      <point x="253" y="71" type="curve" smooth="yes"/>
      <point x="190" y="71"/>
      <point x="150" y="100"/>
    </contour>
  </outline>
</glyph>
<glyph name="b" format="2">
  <advance width="611"/>
  <unicode hex="0062"/>
  <outline>
    <contour>
      <point x="70" y="0" type="line"/>
      <point x="181" y="0" type="line"/>
      <point x="181" y="64" type="line"/>
      <point x="219" y="19"/>
      <point x="271" y="-5"/>
      <point x="330" y="-5" type="curve" smooth="yes"/>
      <point x="461" y="-5"/>
      <point x="563" y="107"/>
      <point x="563" y="250" type="curve" smooth="yes"/>
      <point x="563" y="392"/>
      <point x="464" y="505"/>
      <point x="337" y="505" type="curve" smooth="yes"/>
      <point x="274" y="505"/>
      <point x="218" y="478"/>
      <point x="183" y="434" type="curve"/>
      <point x="183" y="733" type="line"/>
      <point x="70" y="714" type="line"/>
    </contour>
    <contour>
      <point x="303" y="89" type="curve" smooth="yes"/>
      <point x="255" y="89"/>
      <point x="212" y="110"/>
      <point x="183" y="145" type="curve"/>
      <point x="183" y="354" type="line"/>
      <point x="212" y="390"/>
      <point x="253" y="410"/>
      <point x="303" y="410" type="curve" smooth="yes"/>
      <point x="388" y="410"/>
      <point x="452" y="341"/>
      <point x="452" y="250" type="curve" smooth="yes"/>
      <point x="452" y="158"/>
      <point x="389" y="89"/>
    </contour>
  </outline>
</glyph>
<glyph name="c" format="2">
  <advance width="523"/>
  <unicode hex="0063"/>
  <anchor x="298" y="501" name="top"/>
  <anchor x="301" y="4" name="bottom"/>
  <outline>
    <contour>
      <point x="300" y="-9" type="curve" smooth="yes"/>
      <point x="378" y="-9"/>
      <point x="450" y="22"/>
      <point x="500" y="76" type="curve"/>
      <point x="430" y="148" type="line"/>
      <point x="395" y="110"/>
      <point x="352" y="90"/>
      <point x="304" y="90" type="curve" smooth="yes"/>
      <point x="223" y="90"/>
      <point x="160" y="159"/>
      <point x="160" y="250" type="curve" smooth="yes"/>
      <point x="160" y="340"/>
      <point x="223" y="410"/>
      <point x="304" y="410" type="curve" smooth="yes"/>
      <point x="352" y="410"/>
      <point x="395" y="390"/>
      <point x="430" y="351" type="curve"/>
      <point x="500" y="424" type="line"/>
      <point x="450" y="478"/>
      <point x="378" y="509"/>
      <point x="300" y="509" type="curve" smooth="yes"/>
      <point x="157" y="509"/>
      <point x="47" y="395"/>
      <point x="47" y="250" type="curve" smooth="yes"/>
      <point x="47" y="104"/>
      <point x="157" y="-9"/>
    </contour>
  </outline>
</glyph>
<glyph name="e" format="2">
  <advance width="573"/>
  <unicode hex="0065"/>
  <anchor x="293" y="501" name="top"/>
  <anchor x="382" y="0" name="bottom"/>
  <outline>
    <contour>
      <point x="303" y="-10" type="curve" smooth="yes"/>
      <point x="379" y="-10"/>
      <point x="440" y="12"/>
      <point x="501" y="63" type="curve"/>
      <point x="427" y="130" type="line"/>
      <point x="399" y="101"/>
      <point x="355" y="83"/>
      <point x="308" y="83" type="curve" smooth="yes"/>
      <point x="230" y="83"/>
      <point x="169" y="142"/>
      <point x="158" y="223" type="curve"/>
      <point x="528" y="223" type="line"/>
      <point x="528" y="250" type="line" smooth="yes"/>
      <point x="528" y="400"/>
      <point x="428" y="509"/>
      <point x="291" y="509" type="curve" smooth="yes"/>
      <point x="153" y="509"/>
      <point x="47" y="397"/>
      <point x="47" y="250" type="curve" smooth="yes"/>
      <point x="47" y="103"/>
      <point x="159" y="-10"/>
    </contour>
    <contour>
      <point x="159" y="293" type="line"/>
      <point x="172" y="368"/>
      <point x="222" y="417"/>
      <point x="290" y="417" type="curve" smooth="yes"/>
      <point x="357" y="417"/>
      <point x="409" y="366"/>
      <point x="421" y="293" type="curve"/>
    </contour>
  </outline>
</glyph>
<glyph name="f" format="2">
  <advance width="411"/>
  <unicode hex="0066"/>
  <outline>
    <contour>
      <point x="138" y="0" type="line"/>
      <point x="251" y="0" type="line"/>
      <point x="251" y="411" type="line"/>
      <point x="386" y="411" type="line"/>
      <point x="386" y="501" type="line"/>
      <point x="251" y="501" type="line"/>
      <point x="251" y="585" type="line" smooth="yes"/>
      <point x="251" y="634"/>
      <point x="274" y="657"/>
      <point x="326" y="657" type="curve" smooth="yes"/>
      <point x="346" y="657"/>
      <point x="361" y="655"/>
      <point x="386" y="650" type="curve"/>
      <point x="386" y="746" type="line"/>
      <point x="367" y="752"/>
      <point x="339" y="755"/>
      <point x="311" y="755" type="curve" smooth="yes"/>
      <point x="199" y="755"/>
      <point x="138" y="696"/>
      <point x="138" y="587" type="curve" smooth="yes"/>
      <point x="138" y="501" type="line"/>
      <point x="30" y="501" type="line"/>
      <point x="30" y="411" type="line"/>
      <point x="138" y="411" type="line"/>
    </contour>
  </outline>
</glyph>
<glyph name="g" format="2">
  <advance width="609"/>
  <unicode hex="0067"/>
  <anchor x="302" y="501" name="top"/>
  <outline>
    <contour>
      <point x="304" y="-219" type="curve" smooth="yes"/>
      <point x="456" y="-219"/>
      <point x="540" y="-147"/>
      <point x="540" y="-18" type="curve" smooth="yes"/>
      <point x="540" y="501" type="line"/>
      <point x="428" y="501" type="line"/>
      <point x="428" y="438" type="line"/>
      <point x="391" y="482"/>
      <point x="339" y="505"/>
      <point x="281" y="505" type="curve"/>
      <point x="150" y="505"/>
      <point x="47" y="394"/>
      <point x="47" y="252" type="curve" smooth="yes"/>
      <point x="47" y="110"/>
      <point x="146" y="-3"/>
      <point x="273" y="-3" type="curve"/>
      <point x="336" y="-3"/>
      <point x="391" y="23"/>
      <point x="427" y="67" type="curve"/>
      <point x="427" y="-18" type="line" smooth="yes"/>
      <point x="427" y="-91"/>
      <point x="383" y="-129"/>
      <point x="299" y="-129" type="curve" smooth="yes"/>
      <point x="249" y="-129"/>
      <point x="201" y="-116"/>
      <point x="142" y="-87" type="curve"/>
      <point x="103" y="-170" type="line"/>
      <point x="162" y="-201"/>
      <point x="232" y="-219"/>
    </contour>
    <contour>
      <point x="308" y="91" type="curve"/>
      <point x="222" y="91"/>
      <point x="158" y="160"/>
      <point x="158" y="251" type="curve" smooth="yes"/>
      <point x="158" y="343"/>
      <point x="222" y="410"/>
      <point x="308" y="410" type="curve"/>
      <point x="355" y="410"/>
      <point x="398" y="390"/>
      <point x="427" y="356" type="curve"/>
      <point x="427" y="146" type="line"/>
      <point x="398" y="111"/>
      <point x="357" y="91"/>
    </contour>
  </outline>
</glyph>
<glyph name="h" format="2">
  <advance width="582"/>
  <unicode hex="0068"/>
  <anchor x="124" y="700" name="top"/>
  <outline>
    <contour>
      <point x="70" y="0" type="line"/>
      <point x="183" y="0" type="line"/>
      <point x="183" y="357" type="line"/>
      <point x="209" y="397"/>
      <point x="246" y="418"/>
      <point x="292" y="418" type="curve" smooth="yes"/>
      <point x="359" y="418"/>
      <point x="402" y="371"/>
      <point x="402" y="298" type="curve" smooth="yes"/>
      <point x="402" y="0" type="line"/>
      <point x="516" y="0" type="line"/>
      <point x="516" y="330" type="line" smooth="yes"/>
      <point x="516" y="436"/>
      <point x="444" y="509"/>
      <point x="341" y="509" type="curve" smooth="yes"/>
      <point x="276" y="509"/>
      <point x="221" y="478"/>
      <point x="183" y="419" type="curve"/>
      <point x="183" y="737" type="line"/>
      <point x="70" y="717" type="line"/>
    </contour>
  </outline>
</glyph>
<glyph name="i" format="2">
  <advance width="252"/>
  <unicode hex="0069"/>
  <anchor x="126" y="501" name="top"/>
  <anchor x="182" y="0" name="bottom"/>
  <outline>
    <contour>
      <point x="69" y="0" type="line"/>
      <point x="182" y="0" type="line"/>
      <point x="182" y="501" type="line"/>
      <point x="69" y="501" type="line"/>
    </contour>
    <contour>
      <point x="126" y="603" type="curve" smooth="yes"/>
      <point x="164" y="603"/>
      <point x="196" y="634"/>
      <point x="196" y="672" type="curve" smooth="yes"/>
      <point x="196" y="710"/>
      <point x="164" y="742"/>
      <point x="126" y="742" type="curve" smooth="yes"/>
      <point x="87" y="742"/>
      <point x="56" y="710"/>
      <point x="56" y="672" type="curve" smooth="yes"/>
      <point x="56" y="634"/>
      <point x="87" y="603"/>
    </contour>
  </outline>
</glyph>
<glyph name="j" format="2">
  <advance width="252"/>
  <unicode hex="006A"/>
  <outline>
    <contour>
      <point x="126" y="603" type="curve" smooth="yes"/>
      <point x="165" y="603"/>
      <point x="197" y="634"/>
      <point x="197" y="672" type="curve" smooth="yes"/>
      <point x="197" y="710"/>
      <point x="165" y="742"/>
      <point x="126" y="742" type="curve" smooth="yes"/>
      <point x="88" y="742"/>
      <point x="56" y="710"/>
      <point x="56" y="672" type="curve" smooth="yes"/>
      <point x="56" y="634"/>
      <point x="88" y="603"/>
    </contour>
    <contour>
      <point x="35" y="-219" type="curve" smooth="yes"/>
      <point x="130" y="-219"/>
      <point x="183" y="-166"/>
      <point x="183" y="-75" type="curve" smooth="yes"/>
      <point x="183" y="501" type="line"/>
      <point x="70" y="501" type="line"/>
      <point x="70" y="-70" type="line" smooth="yes"/>
      <point x="70" y="-108"/>
      <point x="53" y="-125"/>
      <point x="14" y="-125" type="curve" smooth="yes"/>
      <point x="-2" y="-125"/>
      <point x="-13" y="-124"/>
      <point x="-26" y="-121" type="curve"/>
      <point x="-26" y="-211" type="line"/>
      <point x="-12" y="-216"/>
      <point x="13" y="-219"/>
    </contour>
  </outline>
</glyph>
<glyph name="l" format="2">
  <advance width="252"/>
  <unicode hex="006C"/>
  <anchor x="126" y="698" name="top"/>
  <anchor x="126" y="0" name="bottom"/>
  <outline>
    <contour>
      <point x="70" y="0" type="line"/>
      <point x="183" y="0" type="line"/>
      <point x="183" y="737" type="line"/>
      <point x="70" y="717" type="line"/>
    </contour>
  </outline>
</glyph>
<glyph name="m" format="2">
  <advance width="876"/>
  <unicode hex="006D"/>
  <outline>
    <contour>
      <point x="70" y="0" type="line"/>
      <point x="183" y="0" type="line"/>
      <point x="183" y="360" type="line"/>
      <point x="208" y="399"/>
      <point x="241" y="418"/>
      <point x="282" y="418" type="curve" smooth="yes"/>
      <point x="344" y="418"/>
      <point x="383" y="373"/>
      <point x="383" y="303" type="curve" smooth="yes"/>
      <point x="383" y="0" type="line"/>
      <point x="497" y="0" type="line"/>
      <point x="497" y="328" type="line" smooth="yes"/>
      <point x="497" y="338"/>
      <point x="496" y="348"/>
      <point x="495" y="358" type="curve"/>
      <point x="520" y="399"/>
      <point x="554" y="418"/>
      <point x="595" y="418" type="curve" smooth="yes"/>
      <point x="657" y="418"/>
      <point x="696" y="373"/>
      <point x="696" y="303" type="curve" smooth="yes"/>
      <point x="696" y="0" type="line"/>
      <point x="809" y="0" type="line"/>
      <point x="809" y="328" type="line" smooth="yes"/>
      <point x="809" y="434"/>
      <point x="742" y="509"/>
      <point x="645" y="509" type="curve" smooth="yes"/>
      <point x="574" y="509"/>
      <point x="518" y="476"/>
      <point x="479" y="413" type="curve"/>
      <point x="453" y="472"/>
      <point x="400" y="509"/>
      <point x="331" y="509" type="curve" smooth="yes"/>
      <point x="270" y="509"/>
      <point x="220" y="479"/>
      <point x="183" y="422" type="curve"/>
      <point x="183" y="501" type="line"/>
      <point x="70" y="501" type="line"/>
    </contour>
  </outline>
</glyph>
<glyph name="o" format="2">
  <advance width="597"/>
  <unicode hex="006F"/>
  <anchor x="299" y="501" name="top"/>
  <outline>
    <contour>
      <point x="299" y="-9" type="curve" smooth="yes"/>
      <point x="442" y="-9"/>
      <point x="550" y="102"/>
      <point x="550" y="250" type="curve" smooth="yes"/>
      <point x="550" y="398"/>
      <point x="442" y="509"/>
      <point x="299" y="509" type="curve" smooth="yes"/>
      <point x="155" y="509"/>
      <point x="47" y="398"/>
      <point x="47" y="250" type="curve" smooth="yes"/>
      <point x="47" y="102"/>
      <point x="155" y="-9"/>
    </contour>
    <contour>
      <point x="299" y="87" type="curve" smooth="yes"/>
      <point x="217" y="87"/>
      <point x="158" y="156"/>
      <point x="158" y="250" type="curve" smooth="yes"/>
      <point x="158" y="343"/>
      <point x="217" y="413"/>
      <point x="299" y="413" type="curve" smooth="yes"/>
      <point x="380" y="413"/>
      <point x="439" y="343"/>
      <point x="439" y="250" type="curve" smooth="yes"/>
      <point x="439" y="156"/>
      <point x="380" y="87"/>
    </contour>
  </outline>
</glyph>
<glyph name="r" format="2">
  <advance width="393"/>
  <unicode hex="0072"/>
  <anchor x="222" y="501" name="top"/>
  <anchor x="126" y="0" name="bottom"/>
  <outline>
    <contour>
      <point x="70" y="0" type="line"/>
      <point x="183" y="0" type="line"/>
      <point x="183" y="330" type="line"/>
      <point x="208" y="382"/>
      <point x="253" y="413"/>
      <point x="308" y="413" type="curve" smooth="yes"/>
      <point x="329" y="413"/>
      <point x="352" y="408"/>
      <point x="370" y="401" type="curve"/>
      <point x="370" y="500" type="line"/>
      <point x="353" y="507"/>
      <point x="340" y="509"/>
      <point x="321" y="510" type="curve" smooth="yes"/>
      <point x="259" y="510"/>
      <point x="211" y="469"/>
      <point x="183" y="393" type="curve"/>
      <point x="183" y="501" type="line"/>
      <point x="70" y="501" type="line"/>
    </contour>
  </outline>
</glyph>
<glyph name="s" format="2">
  <advance width="479"/>
  <unicode hex="0073"/>
  <note>
Version created Fri Aug  3 17:49:29 2018
</note>
  <anchor x="229" y="501" name="top"/>
  <anchor x="240" y="0" name="bottom"/>
  <outline>
    <contour>
      <point x="240" y="-10" type="curve" smooth="yes"/>
      <point x="357" y="-10"/>
      <point x="445" y="61"/>
      <point x="445" y="153" type="curve" smooth="yes"/>
      <point x="445" y="228"/>
      <point x="397" y="274"/>
      <point x="297" y="292" type="curve" smooth="yes"/>
      <point x="208" y="309" type="line" smooth="yes"/>
      <point x="156" y="318"/>
      <point x="138" y="332"/>
      <point x="138" y="364" type="curve" smooth="yes"/>
      <point x="138" y="400"/>
      <point x="172" y="422"/>
      <point x="224" y="422" type="curve"/>
      <point x="275" y="422"/>
      <point x="324" y="407"/>
      <point x="375" y="374" type="curve"/>
      <point x="428" y="449" type="line"/>
      <point x="364" y="489"/>
      <point x="301" y="509"/>
      <point x="231" y="509" type="curve"/>
      <point x="114" y="509"/>
      <point x="37" y="448"/>
      <point x="37" y="354" type="curve" smooth="yes"/>
      <point x="37" y="279"/>
      <point x="84" y="234"/>
      <point x="182" y="216" type="curve" smooth="yes"/>
      <point x="270" y="201" type="line" smooth="yes"/>
      <point x="319" y="191"/>
      <point x="340" y="175"/>
      <point x="340" y="144" type="curve" smooth="yes"/>
      <point x="340" y="104"/>
      <point x="299" y="76"/>
      <point x="239" y="76" type="curve" smooth="yes"/>
      <point x="188" y="76"/>
      <point x="144" y="92"/>
      <point x="78" y="133" type="curve"/>
      <point x="25" y="58" type="line"/>
      <point x="78" y="14"/>
      <point x="154" y="-10"/>
    </contour>
  </outline>
</glyph>
<glyph name="t" format="2">
  <advance width="414"/>
  <unicode hex="0074"/>
  <anchor x="256" y="0" name="bottom"/>
  <outline>
    <contour>
      <point x="286" y="-10" type="curve" smooth="yes"/>
      <point x="316" y="-10"/>
      <point x="354" y="-5"/>
      <point x="383" y="4" type="curve"/>
      <point x="383" y="99" type="line"/>
      <point x="353" y="90"/>
      <point x="337" y="87"/>
      <point x="315" y="87" type="curve" smooth="yes"/>
      <point x="264" y="87"/>
      <point x="245" y="106"/>
      <point x="245" y="155" type="curve" smooth="yes"/>
      <point x="245" y="411" type="line"/>
      <point x="384" y="411" type="line"/>
      <point x="384" y="501" type="line"/>
      <point x="245" y="501" type="line"/>
      <point x="245" y="663" type="line"/>
      <point x="132" y="639" type="line"/>
      <point x="132" y="501" type="line"/>
      <point x="32" y="501" type="line"/>
      <point x="32" y="411" type="line"/>
      <point x="132" y="411" type="line"/>
      <point x="132" y="130" type="line" smooth="yes"/>
      <point x="132" y="38"/>
      <point x="185" y="-10"/>
    </contour>
  </outline>
</glyph>
<glyph name="u" format="2">
  <advance width="582"/>
  <unicode hex="0075"/>
  <anchor x="287" y="501" name="top"/>
  <anchor x="512" y="0" name="bottom"/>
  <outline>
    <contour>
      <point x="240" y="-8" type="curve" smooth="yes"/>
      <point x="307" y="-8"/>
      <point x="361" y="22"/>
      <point x="399" y="81" type="curve"/>
      <point x="399" y="0" type="line"/>
      <point x="512" y="0" type="line"/>
      <point x="512" y="501" type="line"/>
      <point x="399" y="501" type="line"/>
      <point x="399" y="143" type="line"/>
      <point x="373" y="103"/>
      <point x="335" y="83"/>
      <point x="290" y="83" type="curve" smooth="yes"/>
      <point x="223" y="83"/>
      <point x="180" y="130"/>
      <point x="180" y="204" type="curve" smooth="yes"/>
      <point x="180" y="501" type="line"/>
      <point x="66" y="501" type="line"/>
      <point x="66" y="171" type="line" smooth="yes"/>
      <point x="66" y="66"/>
      <point x="138" y="-8"/>
    </contour>
  </outline>
</glyph>
<glyph name="v" format="2">
  <advance width="542"/>
  <unicode hex="0076"/>
  <outline>
    <contour>
      <point x="215" y="0" type="line"/>
      <point x="325" y="0" type="line"/>
      <point x="531" y="501" type="line"/>
      <point x="413" y="501" type="line"/>
      <point x="274" y="137" type="line"/>
      <point x="134" y="501" type="line"/>
      <point x="11" y="501" type="line"/>
    </contour>
  </outline>
</glyph>
<glyph name="w" format="2">
  <advance width="736"/>
  <unicode hex="0077"/>
  <anchor x="369" y="501" name="top"/>
  <outline>
    <contour>
      <point x="158" y="0" type="line"/>
      <point x="268" y="0" type="line"/>
      <point x="369" y="353" type="line"/>
      <point x="471" y="0" type="line"/>
      <point x="579" y="0" type="line"/>
      <point x="714" y="501" type="line"/>
      <point x="609" y="501" type="line"/>
      <point x="521" y="148" type="line"/>
      <point x="418" y="501" type="line"/>
      <point x="323" y="501" type="line"/>
      <point x="219" y="148" type="line"/>
      <point x="131" y="501" type="line"/>
      <point x="23" y="501" type="line"/>
    </contour>
  </outline>
</glyph>
<glyph name="y" format="2">
  <advance width="537"/>
  <unicode hex="0079"/>
  <anchor x="268" y="501" name="top"/>
  <outline>
    <contour>
      <point x="106" y="-219" type="curve" smooth="yes"/>
      <point x="200" y="-219"/>
      <point x="246" y="-184"/>
      <point x="285" y="-87" type="curve" smooth="yes"/>
      <point x="525" y="501" type="line"/>
      <point x="401" y="501" type="line"/>
      <point x="262" y="130" type="line"/>
      <point x="134" y="501" type="line"/>
      <point x="9" y="501" type="line"/>
      <point x="198" y="-5" type="line"/>
      <point x="175" y="-61" type="line" smooth="yes"/>
      <point x="158" y="-100"/>
      <point x="134" y="-118"/>
      <point x="94" y="-118" type="curve" smooth="yes"/>
      <point x="79" y="-118"/>
      <point x="63" y="-117"/>
      <point x="50" y="-114" type="curve"/>
      <point x="50" y="-212" type="line"/>
      <point x="70" y="-217"/>
      <point x="90" y="-219"/>
    </contour>
  </outline>
</glyph>
<glyph name="braceleft" format="2">
  <advance width="422"/>
  <unicode hex="007B"/>
  <outline>
    <contour>
      <point x="281" y="-219" type="curve"/>
      <point x="312" y="-219"/>
      <point x="339" y="-214"/>
      <point x="370" y="-203" type="curve"/>
      <point x="352" y="-120" type="line"/>
      <point x="332" y="-127"/>
      <point x="313" y="-131"/>
      <point x="293" y="-131" type="curve"/>
      <point x="236" y="-130"/>
      <point x="213" y="-86"/>
      <point x="236" y="-23" type="curve" smooth="yes"/>
      <point x="275" y="85" type="line" smooth="yes"/>
      <point x="302" y="160"/>
      <point x="265" y="227"/>
      <point x="187" y="246" type="curve"/>
      <point x="264" y="264"/>
      <point x="302" y="332"/>
      <point x="275" y="406" type="curve" smooth="yes"/>
      <point x="236" y="515" type="line" smooth="yes"/>
      <point x="213" y="577"/>
      <point x="236" y="622"/>
      <point x="293" y="623" type="curve"/>
      <point x="313" y="623"/>
      <point x="332" y="619"/>
      <point x="352" y="612" type="curve"/>
      <point x="370" y="695" type="line"/>
      <point x="339" y="706"/>
      <point x="312" y="711"/>
      <point x="281" y="711" type="curve"/>
      <point x="159" y="711"/>
      <point x="99" y="623"/>
      <point x="141" y="506" type="curve" smooth="yes"/>
      <point x="176" y="410" type="line" smooth="yes"/>
      <point x="202" y="340"/>
      <point x="173" y="289"/>
      <point x="109" y="289" type="curve" smooth="yes"/>
      <point x="34" y="289" type="line"/>
      <point x="34" y="202" type="line"/>
      <point x="109" y="202" type="line" smooth="yes"/>
      <point x="173" y="202"/>
      <point x="202" y="151"/>
      <point x="176" y="81" type="curve" smooth="yes"/>
      <point x="141" y="-14" type="line" smooth="yes"/>
      <point x="100" y="-131"/>
      <point x="159" y="-219"/>
    </contour>
  </outline>
</glyph>
<glyph name="bar" format="2">
  <advance width="320"/>
  <unicode hex="007C"/>
  <outline>
    <contour>
      <point x="109" y="-209" type="line"/>
      <point x="211" y="-209" type="line"/>
      <point x="211" y="700" type="line"/>
      <point x="109" y="700" type="line"/>
    </contour>
  </outline>
</glyph>
<glyph name="cent" format="2">
  <advance width="523"/>
  <unicode hex="00A2"/>
  <outline>
    <contour>
      <point x="270" y="-114" type="line"/>
      <point x="328" y="-114" type="line"/>
      <point x="328" y="-7" type="line"/>
      <point x="395" y="-1"/>
      <point x="456" y="28"/>
      <point x="500" y="76" type="curve"/>
      <point x="430" y="148" type="line"/>
      <point x="402" y="117"/>
      <point x="366" y="97"/>
      <point x="328" y="92" type="curve"/>
      <point x="328" y="408" type="line"/>
      <point x="366" y="402"/>
      <point x="402" y="383"/>
      <point x="430" y="351" type="curve"/>
      <point x="500" y="424" type="line"/>
      <point x="456" y="472"/>
      <point x="395" y="501"/>
      <point x="328" y="507" type="curve"/>
      <point x="328" y="616" type="line"/>
      <point x="270" y="616" type="line"/>
      <point x="270" y="507" type="line"/>
      <point x="142" y="493"/>
      <point x="47" y="385"/>
      <point x="47" y="250" type="curve" smooth="yes"/>
      <point x="47" y="115"/>
      <point x="142" y="7"/>
      <point x="270" y="-7" type="curve"/>
    </contour>
    <contour>
      <point x="160" y="250" type="curve" smooth="yes"/>
      <point x="160" y="327"/>
      <point x="206" y="389"/>
      <point x="270" y="406" type="curve"/>
      <point x="270" y="94" type="line"/>
      <point x="206" y="111"/>
      <point x="160" y="172"/>
    </contour>
  </outline>
</glyph>
<glyph name="sterling" format="2">
  <advance width="635"/>
  <unicode hex="00A3"/>
  <outline>
    <contour>
      <point x="465" y="-26" type="curve" smooth="yes"/>
      <point x="533" y="-26"/>
      <point x="585" y="8"/>
      <point x="624" y="78" type="curve"/>
      <point x="540" y="129" type="line"/>
      <point x="519" y="88"/>
      <point x="492" y="69"/>
      <point x="452" y="69" type="curve" smooth="yes"/>
      <point x="439" y="69"/>
      <point x="426" y="71"/>
      <point x="411" y="74" type="curve" smooth="yes"/>
      <point x="244" y="114" type="line"/>
      <point x="263" y="134"/>
      <point x="272" y="161"/>
      <point x="272" y="194" type="curve" smooth="yes"/>
      <point x="272" y="206"/>
      <point x="270" y="219"/>
      <point x="258" y="295" type="curve"/>
      <point x="428" y="295" type="line"/>
      <point x="428" y="373" type="line"/>
      <point x="243" y="373" type="line"/>
      <point x="228" y="454"/>
      <point x="226" y="472"/>
      <point x="226" y="489" type="curve" smooth="yes"/>
      <point x="226" y="570"/>
      <point x="268" y="617"/>
      <point x="346" y="617" type="curve" smooth="yes"/>
      <point x="416" y="617"/>
      <point x="461" y="577"/>
      <point x="482" y="501" type="curve"/>
      <point x="581" y="531" type="line"/>
      <point x="548" y="650"/>
      <point x="467" y="711"/>
      <point x="342" y="711" type="curve" smooth="yes"/>
      <point x="204" y="711"/>
      <point x="119" y="621"/>
      <point x="119" y="484" type="curve" smooth="yes"/>
      <point x="119" y="461"/>
      <point x="122" y="437"/>
      <point x="134" y="373" type="curve"/>
      <point x="51" y="373" type="line"/>
      <point x="51" y="295" type="line"/>
      <point x="149" y="295" type="line"/>
      <point x="169" y="188"/>
      <point x="170" y="181"/>
      <point x="170" y="174" type="curve" smooth="yes"/>
      <point x="170" y="152"/>
      <point x="162" y="135"/>
      <point x="148" y="124" type="curve"/>
      <point x="89" y="116"/>
      <point x="43" y="82"/>
      <point x="8" y="18" type="curve"/>
      <point x="93" y="-36" type="line"/>
      <point x="116" y="10"/>
      <point x="144" y="31"/>
      <point x="186" y="31" type="curve" smooth="yes"/>
      <point x="197" y="31"/>
      <point x="210" y="30"/>
      <point x="224" y="26" type="curve" smooth="yes"/>
      <point x="396" y="-16" type="line" smooth="yes"/>
      <point x="420" y="-23"/>
      <point x="444" y="-26"/>
    </contour>
  </outline>
</glyph>
<glyph name="yen" format="2">
  <advance width="693"/>
  <unicode hex="00A5"/>
  <outline>
    <contour>
      <point x="284" y="0" type="line"/>
      <point x="404" y="0" type="line"/>
      <point x="404" y="132" type="line"/>
      <point x="572" y="132" type="line"/>
      <point x="572" y="198" type="line"/>
      <point x="404" y="198" type="line"/>
      <point x="404" y="263" type="line"/>
      <point x="572" y="263" type="line"/>
      <point x="572" y="330" type="line"/>
      <point x="439" y="330" type="line"/>
      <point x="682" y="700" type="line"/>
      <point x="551" y="700" type="line"/>
      <point x="347" y="380" type="line"/>
      <point x="145" y="700" type="line"/>
      <point x="6" y="700" type="line"/>
      <point x="249" y="330" type="line"/>
      <point x="114" y="330" type="line"/>
      <point x="114" y="263" type="line"/>
      <point x="284" y="263" type="line"/>
      <point x="284" y="198" type="line"/>
      <point x="114" y="198" type="line"/>
      <point x="114" y="132" type="line"/>
      <point x="284" y="132" type="line"/>
    </contour>
  </outline>
</glyph>
<glyph name="section" format="2">
  <advance width="576"/>
  <unicode hex="00A7"/>
  <outline>
    <contour>
      <point x="281" y="-52" type="curve" smooth="yes"/>
      <point x="390" y="-52"/>
      <point x="461" y="6"/>
      <point x="461" y="95" type="curve" smooth="yes"/>
      <point x="461" y="134"/>
      <point x="448" y="164"/>
      <point x="421" y="189" type="curve"/>
      <point x="482" y="211"/>
      <point x="518" y="257"/>
      <point x="518" y="319" type="curve" smooth="yes"/>
      <point x="518" y="393"/>
      <point x="481" y="432"/>
      <point x="377" y="468" type="curve" smooth="yes"/>
      <point x="276" y="504" type="line" smooth="yes"/>
      <point x="232" y="519"/>
      <point x="213" y="538"/>
      <point x="213" y="570" type="curve" smooth="yes"/>
      <point x="213" y="610"/>
      <point x="244" y="634"/>
      <point x="295" y="634" type="curve" smooth="yes"/>
      <point x="336" y="634"/>
      <point x="383" y="618"/>
      <point x="437" y="585" type="curve"/>
      <point x="480" y="657" type="line"/>
      <point x="421" y="691"/>
      <point x="356" y="711"/>
      <point x="296" y="711" type="curve" smooth="yes"/>
      <point x="187" y="711"/>
      <point x="114" y="651"/>
      <point x="114" y="562" type="curve" smooth="yes"/>
      <point x="114" y="523"/>
      <point x="127" y="492"/>
      <point x="155" y="468" type="curve"/>
      <point x="94" y="447"/>
      <point x="58" y="400"/>
      <point x="58" y="339" type="curve" smooth="yes"/>
      <point x="58" y="264"/>
      <point x="95" y="225"/>
      <point x="198" y="190" type="curve" smooth="yes"/>
      <point x="300" y="154" type="line" smooth="yes"/>
      <point x="345" y="138"/>
      <point x="362" y="119"/>
      <point x="362" y="88" type="curve" smooth="yes"/>
      <point x="362" y="49"/>
      <point x="332" y="24"/>
      <point x="281" y="24" type="curve" smooth="yes"/>
      <point x="240" y="24"/>
      <point x="193" y="40"/>
      <point x="139" y="72" type="curve"/>
      <point x="96" y="0" type="line"/>
      <point x="153" y="-34"/>
      <point x="217" y="-52"/>
    </contour>
    <contour>
      <point x="347" y="232" type="curve"/>
      <point x="343" y="234"/>
      <point x="339" y="236"/>
      <point x="334" y="237" type="curve" smooth="yes"/>
      <point x="223" y="274" type="line" smooth="yes"/>
      <point x="171" y="293"/>
      <point x="150" y="315"/>
      <point x="150" y="350" type="curve" smooth="yes"/>
      <point x="150" y="391"/>
      <point x="180" y="418"/>
      <point x="228" y="425" type="curve"/>
      <point x="233" y="424"/>
      <point x="236" y="422"/>
      <point x="241" y="420" type="curve" smooth="yes"/>
      <point x="353" y="383" type="line" smooth="yes"/>
      <point x="403" y="365"/>
      <point x="426" y="342"/>
      <point x="426" y="307" type="curve" smooth="yes"/>
      <point x="426" y="267"/>
      <point x="395" y="239"/>
    </contour>
  </outline>
</glyph>
<glyph name="dieresis" format="2">
  <advance width="600"/>
  <unicode hex="00A8"/>
  <anchor x="300" y="501" name="_top"/>
  <outline>
    <contour>
      <point x="199" y="606" type="curve" smooth="yes"/>
      <point x="236" y="606"/>
      <point x="265" y="634"/>
      <point x="265" y="671" type="curve" smooth="yes"/>
      <point x="265" y="708"/>
      <point x="236" y="737"/>
      <point x="199" y="737" type="curve" smooth="yes"/>
      <point x="163" y="737"/>
      <point x="134" y="708"/>
      <point x="134" y="671" type="curve" smooth="yes"/>
      <point x="134" y="634"/>
      <point x="163" y="606"/>
    </contour>
    <contour>
      <point x="401" y="606" type="curve" smooth="yes"/>
      <point x="437" y="606"/>
      <point x="466" y="634"/>
      <point x="466" y="671" type="curve" smooth="yes"/>
      <point x="466" y="708"/>
      <point x="437" y="737"/>
      <point x="401" y="737" type="curve" smooth="yes"/>
      <point x="364" y="737"/>
      <point x="335" y="708"/>
      <point x="335" y="671" type="curve" smooth="yes"/>
      <point x="335" y="634"/>
      <point x="364" y="606"/>
    </contour>
  </outline>
</glyph>
<glyph name="copyright" format="2">
  <advance width="804"/>
  <unicode hex="00A9"/>
  <outline>
    <contour>
      <point x="410" y="163" type="curve" smooth="yes"/>
      <point x="465" y="163"/>
      <point x="516" y="186"/>
      <point x="554" y="226" type="curve"/>
      <point x="500" y="284" type="line"/>
      <point x="474" y="256"/>
      <point x="446" y="242"/>
      <point x="414" y="242" type="curve" smooth="yes"/>
      <point x="357" y="242"/>
      <point x="314" y="289"/>
      <point x="314" y="350" type="curve" smooth="yes"/>
      <point x="314" y="413"/>
      <point x="357" y="460"/>
      <point x="413" y="460" type="curve" smooth="yes"/>
      <point x="446" y="460"/>
      <point x="475" y="446"/>
      <point x="501" y="417" type="curve"/>
      <point x="556" y="475" type="line"/>
      <point x="520" y="516"/>
      <point x="466" y="539"/>
      <point x="410" y="539" type="curve" smooth="yes"/>
      <point x="307" y="539"/>
      <point x="226" y="457"/>
      <point x="226" y="350" type="curve" smooth="yes"/>
      <point x="226" y="245"/>
      <point x="307" y="163"/>
    </contour>
    <contour>
      <point x="402" y="-11" type="curve" smooth="yes"/>
      <point x="598" y="-11"/>
      <point x="751" y="147"/>
      <point x="751" y="350" type="curve" smooth="yes"/>
      <point x="751" y="553"/>
      <point x="598" y="711"/>
      <point x="402" y="711" type="curve" smooth="yes"/>
      <point x="206" y="711"/>
      <point x="52" y="553"/>
      <point x="52" y="350" type="curve" smooth="yes"/>
      <point x="52" y="147"/>
      <point x="206" y="-11"/>
    </contour>
    <contour>
      <point x="402" y="46" type="curve" smooth="yes"/>
      <point x="242" y="46"/>
      <point x="114" y="182"/>
      <point x="114" y="350" type="curve" smooth="yes"/>
      <point x="114" y="518"/>
      <point x="242" y="654"/>
      <point x="402" y="654" type="curve" smooth="yes"/>
      <point x="563" y="654"/>
      <point x="691" y="518"/>
      <point x="691" y="350" type="curve" smooth="yes"/>
      <point x="691" y="182"/>
      <point x="563" y="46"/>
    </contour>
  </outline>
</glyph>
<glyph name="ordfeminine" format="2">
  <advance width="427"/>
  <unicode hex="00AA"/>
  <outline>
    <contour>
      <point x="173" y="309" type="curve" smooth="yes"/>
      <point x="217" y="309"/>
      <point x="252" y="323"/>
      <point x="287" y="352" type="curve"/>
      <point x="287" y="316" type="line"/>
      <point x="377" y="316" type="line"/>
      <point x="377" y="569" type="line" smooth="yes"/>
      <point x="377" y="659"/>
      <point x="319" y="711"/>
      <point x="215" y="711" type="curve" smooth="yes"/>
      <point x="163" y="711"/>
      <point x="110" y="699"/>
      <point x="49" y="670" type="curve"/>
      <point x="82" y="602" type="line"/>
      <point x="131" y="624"/>
      <point x="167" y="634"/>
      <point x="201" y="634" type="curve" smooth="yes"/>
      <point x="258" y="634"/>
      <point x="287" y="610"/>
      <point x="287" y="561" type="curve" smooth="yes"/>
      <point x="287" y="525" type="line"/>
      <point x="255" y="538"/>
      <point x="222" y="545"/>
      <point x="189" y="545" type="curve" smooth="yes"/>
      <point x="90" y="545"/>
      <point x="30" y="501"/>
      <point x="30" y="428" type="curve" smooth="yes"/>
      <point x="30" y="358"/>
      <point x="89" y="309"/>
    </contour>
    <contour>
      <point x="195" y="376" type="curve" smooth="yes"/>
      <point x="148" y="376"/>
      <point x="118" y="397"/>
      <point x="118" y="430" type="curve" smooth="yes"/>
      <point x="118" y="463"/>
      <point x="148" y="484"/>
      <point x="198" y="484" type="curve" smooth="yes"/>
      <point x="232" y="484"/>
      <point x="261" y="479"/>
      <point x="287" y="466" type="curve"/>
      <point x="287" y="405" type="line"/>
      <point x="262" y="386"/>
      <point x="232" y="376"/>
    </contour>
  </outline>
</glyph>
<glyph name="uni00AC" format="2">
  <advance width="590"/>
  <unicode hex="00AC"/>
  <outline>
    <contour>
      <point x="442" y="0" type="line"/>
      <point x="532" y="0" type="line"/>
      <point x="532" y="332" type="line"/>
      <point x="62" y="332" type="line"/>
      <point x="62" y="245" type="line"/>
      <point x="442" y="245" type="line"/>
    </contour>
  </outline>
</glyph>
<glyph name="macron" format="2">
  <advance width="600"/>
  <unicode hex="00AF"/>
  <anchor x="300" y="501" name="_top"/>
  <outline>
    <contour>
      <point x="151" y="618" type="line"/>
      <point x="449" y="618" type="line"/>
      <point x="449" y="692" type="line"/>
      <point x="151" y="692" type="line"/>
    </contour>
  </outline>
</glyph>
<glyph name="degree" format="2">
  <advance width="403"/>
  <unicode hex="00B0"/>
  <outline>
    <contour>
      <point x="202" y="418" type="curve" smooth="yes"/>
      <point x="285" y="418"/>
      <point x="350" y="484"/>
      <point x="350" y="564" type="curve" smooth="yes"/>
      <point x="350" y="644"/>
      <point x="285" y="711"/>
      <point x="202" y="711" type="curve" smooth="yes"/>
      <point x="118" y="711"/>
      <point x="53" y="644"/>
      <point x="53" y="564" type="curve" smooth="yes"/>
      <point x="53" y="484"/>
      <point x="118" y="418"/>
    </contour>
    <contour>
      <point x="202" y="481" type="curve" smooth="yes"/>
      <point x="156" y="481"/>
      <point x="118" y="519"/>
      <point x="118" y="564" type="curve" smooth="yes"/>
      <point x="118" y="610"/>
      <point x="156" y="648"/>
      <point x="202" y="648" type="curve" smooth="yes"/>
      <point x="248" y="648"/>
      <point x="285" y="610"/>
      <point x="285" y="564" type="curve" smooth="yes"/>
      <point x="285" y="519"/>
      <point x="248" y="481"/>
    </contour>
  </outline>
</glyph>
<glyph name="twosuperior" format="2">
  <advance width="301"/>
  <unicode hex="00B2"/>
  <outline>
    <contour>
      <point x="30" y="350" type="line"/>
      <point x="280" y="350" type="line"/>
      <point x="280" y="410" type="line"/>
      <point x="122" y="410" type="line"/>
      <point x="220" y="502" type="line" smooth="yes"/>
      <point x="260" y="539"/>
      <point x="276" y="566"/>
      <point x="276" y="602" type="curve" smooth="yes"/>
      <point x="276" y="662"/>
      <point x="225" y="705"/>
      <point x="151" y="705" type="curve" smooth="yes"/>
      <point x="103" y="705"/>
      <point x="58" y="685"/>
      <point x="18" y="648" type="curve"/>
      <point x="58" y="601" type="line"/>
      <point x="92" y="633"/>
      <point x="118" y="644"/>
      <point x="149" y="644" type="curve" smooth="yes"/>
      <point x="182" y="644"/>
      <point x="207" y="623"/>
      <point x="207" y="596" type="curve" smooth="yes"/>
      <point x="207" y="576"/>
      <point x="197" y="559"/>
      <point x="173" y="536" type="curve" smooth="yes"/>
      <point x="30" y="402" type="line"/>
    </contour>
  </outline>
</glyph>
<glyph name="threesuperior" format="2">
  <advance width="323"/>
  <unicode hex="00B3"/>
  <outline>
    <contour>
      <point x="157" y="345" type="curve"/>
      <point x="239" y="345"/>
      <point x="296" y="388"/>
      <point x="296" y="448" type="curve"/>
      <point x="296" y="488"/>
      <point x="265" y="518"/>
      <point x="218" y="528" type="curve"/>
      <point x="260" y="540"/>
      <point x="286" y="570"/>
      <point x="286" y="606" type="curve"/>
      <point x="286" y="665"/>
      <point x="233" y="706"/>
      <point x="158" y="706" type="curve"/>
      <point x="110" y="706"/>
      <point x="60" y="686"/>
      <point x="25" y="653" type="curve"/>
      <point x="69" y="606" type="line"/>
      <point x="100" y="633"/>
      <point x="125" y="643"/>
      <point x="156" y="643" type="curve"/>
      <point x="190" y="643"/>
      <point x="215" y="624"/>
      <point x="215" y="598" type="curve"/>
      <point x="215" y="570"/>
      <point x="191" y="551"/>
      <point x="156" y="551" type="curve"/>
      <point x="126" y="551" type="line"/>
      <point x="126" y="495" type="line"/>
      <point x="163" y="495" type="line"/>
      <point x="201" y="495"/>
      <point x="225" y="479"/>
      <point x="225" y="452" type="curve"/>
      <point x="225" y="424"/>
      <point x="197" y="406"/>
      <point x="156" y="406" type="curve"/>
      <point x="123" y="406"/>
      <point x="95" y="417"/>
      <point x="63" y="443" type="curve"/>
      <point x="21" y="393" type="line"/>
      <point x="58" y="362"/>
      <point x="105" y="345"/>
    </contour>
  </outline>
</glyph>
<glyph name="acute" format="2">
  <advance width="600"/>
  <unicode hex="00B4"/>
  <anchor x="295" y="501" name="_top"/>
  <outline>
    <contour>
      <point x="216" y="592" type="line"/>
      <point x="315" y="592" type="line"/>
      <point x="481" y="725" type="line"/>
      <point x="339" y="725" type="line"/>
    </contour>
  </outline>
</glyph>
<glyph name="uni00B5" format="2">
  <advance width="585"/>
  <unicode hex="00B5"/>
  <outline>
    <contour>
      <point x="70" y="-209" type="line"/>
      <point x="183" y="-209" type="line"/>
      <point x="183" y="12" type="line"/>
      <point x="202" y="-1"/>
      <point x="226" y="-8"/>
      <point x="253" y="-8" type="curve" smooth="yes"/>
      <point x="315" y="-8"/>
      <point x="366" y="22"/>
      <point x="402" y="79" type="curve"/>
      <point x="402" y="0" type="line"/>
      <point x="516" y="0" type="line"/>
      <point x="516" y="501" type="line"/>
      <point x="402" y="501" type="line"/>
      <point x="402" y="143" type="line"/>
      <point x="376" y="103"/>
      <point x="339" y="83"/>
      <point x="293" y="83" type="curve" smooth="yes"/>
      <point x="226" y="83"/>
      <point x="183" y="130"/>
      <point x="183" y="203" type="curve"/>
      <point x="183" y="501" type="line"/>
      <point x="70" y="501" type="line"/>
    </contour>
  </outline>
</glyph>
<glyph name="periodcentered" format="2">
  <advance width="250"/>
  <unicode hex="00B7"/>
  <outline>
    <contour>
      <point x="127" y="214" type="curve" smooth="yes"/>
      <point x="166" y="214"/>
      <point x="197" y="246"/>
      <point x="197" y="286" type="curve" smooth="yes"/>
      <point x="197" y="326"/>
      <point x="166" y="359"/>
      <point x="127" y="359" type="curve" smooth="yes"/>
      <point x="88" y="359"/>
      <point x="57" y="326"/>
      <point x="57" y="286" type="curve" smooth="yes"/>
      <point x="57" y="246"/>
      <point x="88" y="214"/>
    </contour>
  </outline>
</glyph>
<glyph name="cedilla" format="2">
  <advance width="600"/>
  <unicode hex="00B8"/>
  <outline>
    <contour>
      <point x="300" y="-246" type="curve" smooth="yes"/>
      <point x="370" y="-246"/>
      <point x="421" y="-203"/>
      <point x="421" y="-145" type="curve" smooth="yes"/>
      <point x="421" y="-97"/>
      <point x="382" y="-66"/>
      <point x="322" y="-62" type="curve"/>
      <point x="336" y="0" type="line"/>
      <point x="280" y="0" type="line"/>
      <point x="254" y="-104" type="line"/>
      <point x="290" y="-104" type="line" smooth="yes"/>
      <point x="331" y="-104"/>
      <point x="355" y="-120"/>
      <point x="355" y="-147" type="curve" smooth="yes"/>
      <point x="355" y="-175"/>
      <point x="333" y="-192"/>
      <point x="295" y="-192" type="curve" smooth="yes"/>
      <point x="267" y="-192"/>
      <point x="240" y="-182"/>
      <point x="217" y="-164" type="curve"/>
      <point x="179" y="-207" type="line"/>
      <point x="208" y="-233"/>
      <point x="249" y="-246"/>
    </contour>
  </outline>
</glyph>
<glyph name="onesuperior" format="2">
  <advance width="184"/>
  <unicode hex="00B9"/>
  <outline>
    <contour>
      <point x="89" y="350" type="line"/>
      <point x="160" y="350" type="line"/>
      <point x="160" y="700" type="line"/>
      <point x="116" y="700" type="line"/>
      <point x="21" y="660" type="line"/>
      <point x="21" y="599" type="line"/>
      <point x="89" y="627" type="line"/>
    </contour>
  </outline>
</glyph>
<glyph name="ordmasculine" format="2">
  <advance width="476"/>
  <unicode hex="00BA"/>
  <outline>
    <contour>
      <point x="238" y="307" type="curve" smooth="yes"/>
      <point x="352" y="307"/>
      <point x="442" y="396"/>
      <point x="442" y="509" type="curve" smooth="yes"/>
      <point x="442" y="622"/>
      <point x="352" y="711"/>
      <point x="238" y="711" type="curve" smooth="yes"/>
      <point x="124" y="711"/>
      <point x="33" y="622"/>
      <point x="33" y="509" type="curve" smooth="yes"/>
      <point x="33" y="396"/>
      <point x="124" y="307"/>
    </contour>
    <contour>
      <point x="238" y="387" type="curve" smooth="yes"/>
      <point x="174" y="387"/>
      <point x="124" y="440"/>
      <point x="124" y="509" type="curve" smooth="yes"/>
      <point x="124" y="578"/>
      <point x="174" y="631"/>
      <point x="238" y="631" type="curve" smooth="yes"/>
      <point x="302" y="631"/>
      <point x="352" y="578"/>
      <point x="352" y="509" type="curve" smooth="yes"/>
      <point x="352" y="440"/>
      <point x="302" y="387"/>
    </contour>
  </outline>
</glyph>
<glyph name="AE" format="2">
  <advance width="949"/>
  <unicode hex="00C6"/>
  <outline>
    <contour>
      <point x="6" y="0" type="line"/>
      <point x="131" y="0" type="line"/>
      <point x="203" y="196" type="line"/>
      <point x="489" y="196" type="line"/>
      <point x="561" y="0" type="line"/>
      <point x="897" y="0" type="line"/>
      <point x="897" y="105" type="line"/>
      <point x="648" y="105" type="line"/>
      <point x="574" y="302" type="line"/>
      <point x="771" y="302" type="line"/>
      <point x="771" y="404" type="line"/>
      <point x="537" y="404" type="line"/>
      <point x="466" y="595" type="line"/>
      <point x="897" y="595" type="line"/>
      <point x="897" y="700" type="line"/>
      <point x="281" y="700" type="line"/>
    </contour>
    <contour>
      <point x="237" y="290" type="line"/>
      <point x="347" y="586" type="line"/>
      <point x="456" y="290" type="line"/>
    </contour>
  </outline>
</glyph>
<glyph name="Ccedilla" format="2">
  <advance width="723"/>
  <unicode hex="00C7"/>
  <outline>
    <contour>
      <point x="401" y="-246" type="curve" smooth="yes"/>
      <point x="470" y="-246"/>
      <point x="521" y="-203"/>
      <point x="521" y="-145" type="curve" smooth="yes"/>
      <point x="521" y="-97"/>
      <point x="483" y="-66"/>
      <point x="422" y="-62" type="curve"/>
      <point x="435" y="-11" type="line"/>
      <point x="534" y="-5"/>
      <point x="627" y="40"/>
      <point x="686" y="114" type="curve"/>
      <point x="606" y="192" type="line"/>
      <point x="556" y="130"/>
      <point x="487" y="97"/>
      <point x="413" y="97" type="curve" smooth="yes"/>
      <point x="277" y="97"/>
      <point x="174" y="206"/>
      <point x="174" y="350" type="curve" smooth="yes"/>
      <point x="174" y="494"/>
      <point x="277" y="603"/>
      <point x="413" y="603" type="curve" smooth="yes"/>
      <point x="487" y="603"/>
      <point x="556" y="570"/>
      <point x="606" y="508" type="curve"/>
      <point x="686" y="586" type="line"/>
      <point x="622" y="665"/>
      <point x="520" y="711"/>
      <point x="413" y="711" type="curve" smooth="yes"/>
      <point x="209" y="711"/>
      <point x="51" y="553"/>
      <point x="51" y="350" type="curve" smooth="yes"/>
      <point x="51" y="159"/>
      <point x="191" y="7"/>
      <point x="378" y="-9" type="curve"/>
      <point x="355" y="-104" type="line"/>
      <point x="391" y="-104" type="line" smooth="yes"/>
      <point x="431" y="-104"/>
      <point x="455" y="-120"/>
      <point x="455" y="-147" type="curve" smooth="yes"/>
      <point x="455" y="-175"/>
      <point x="433" y="-192"/>
      <point x="395" y="-192" type="curve" smooth="yes"/>
      <point x="367" y="-192"/>
      <point x="340" y="-182"/>
      <point x="317" y="-164" type="curve"/>
      <point x="279" y="-207" type="line"/>
      <point x="309" y="-233"/>
      <point x="349" y="-246"/>
    </contour>
  </outline>
</glyph>
<glyph name="Oslash" format="2">
  <advance width="812"/>
  <unicode hex="00D8"/>
  <outline>
    <contour>
      <point x="406" y="-11" type="curve" smooth="yes"/>
      <point x="605" y="-11"/>
      <point x="760" y="148"/>
      <point x="760" y="350" type="curve" smooth="yes"/>
      <point x="760" y="447"/>
      <point x="725" y="534"/>
      <point x="665" y="598" type="curve"/>
      <point x="752" y="703" type="line"/>
      <point x="647" y="703" type="line"/>
      <point x="604" y="650" type="line"/>
      <point x="548" y="689"/>
      <point x="480" y="711"/>
      <point x="406" y="711" type="curve" smooth="yes"/>
      <point x="208" y="711"/>
      <point x="52" y="552"/>
      <point x="52" y="350" type="curve" smooth="yes"/>
      <point x="52" y="253"/>
      <point x="87" y="166"/>
      <point x="147" y="102" type="curve"/>
      <point x="59" y="-3" type="line"/>
      <point x="163" y="-3" type="line"/>
      <point x="207" y="51" type="line"/>
      <point x="263" y="12"/>
      <point x="332" y="-11"/>
    </contour>
    <contour>
      <point x="224" y="194" type="line"/>
      <point x="193" y="235"/>
      <point x="174" y="290"/>
      <point x="174" y="350" type="curve" smooth="yes"/>
      <point x="174" y="494"/>
      <point x="275" y="603"/>
      <point x="406" y="603" type="curve" smooth="yes"/>
      <point x="453" y="603"/>
      <point x="496" y="589"/>
      <point x="532" y="565" type="curve"/>
    </contour>
    <contour>
      <point x="406" y="97" type="curve" smooth="yes"/>
      <point x="359" y="97"/>
      <point x="315" y="111"/>
      <point x="279" y="137" type="curve"/>
      <point x="588" y="507" type="line"/>
      <point x="619" y="465"/>
      <point x="637" y="410"/>
      <point x="637" y="350" type="curve" smooth="yes"/>
      <point x="637" y="206"/>
      <point x="537" y="97"/>
    </contour>
  </outline>
</glyph>
<glyph name="germandbls" format="2">
  <advance width="626"/>
  <unicode hex="00DF"/>
  <outline>
    <contour>
      <point x="417" y="-11" type="curve" smooth="yes"/>
      <point x="532" y="-11"/>
      <point x="607" y="53"/>
      <point x="607" y="150" type="curve" smooth="yes"/>
      <point x="607" y="220"/>
      <point x="570" y="264"/>
      <point x="485" y="299" type="curve" smooth="yes"/>
      <point x="423" y="325" type="line" smooth="yes"/>
      <point x="384" y="341"/>
      <point x="374" y="351"/>
      <point x="374" y="373" type="curve" smooth="yes"/>
      <point x="374" y="433"/>
      <point x="512" y="443"/>
      <point x="512" y="568" type="curve" smooth="yes"/>
      <point x="512" y="666"/>
      <point x="424" y="737"/>
      <point x="294" y="737" type="curve" smooth="yes"/>
      <point x="145" y="737"/>
      <point x="53" y="641"/>
      <point x="53" y="496" type="curve" smooth="yes"/>
      <point x="53" y="0" type="line"/>
      <point x="166" y="0" type="line"/>
      <point x="166" y="500" type="line" smooth="yes"/>
      <point x="166" y="586"/>
      <point x="216" y="644"/>
      <point x="297" y="644" type="curve" smooth="yes"/>
      <point x="362" y="644"/>
      <point x="409" y="609"/>
      <point x="409" y="561" type="curve" smooth="yes"/>
      <point x="409" y="476"/>
      <point x="267" y="481"/>
      <point x="267" y="362" type="curve" smooth="yes"/>
      <point x="267" y="307"/>
      <point x="296" y="273"/>
      <point x="365" y="247" type="curve" smooth="yes"/>
      <point x="433" y="221" type="line" smooth="yes"/>
      <point x="485" y="201"/>
      <point x="502" y="183"/>
      <point x="502" y="146" type="curve" smooth="yes"/>
      <point x="502" y="101"/>
      <point x="467" y="72"/>
      <point x="414" y="72" type="curve" smooth="yes"/>
      <point x="372" y="72"/>
      <point x="331" y="89"/>
      <point x="291" y="123" type="curve"/>
      <point x="238" y="52" type="line"/>
      <point x="289" y="8"/>
      <point x="345" y="-11"/>
    </contour>
  </outline>
</glyph>
<glyph name="ae" format="2">
  <advance width="898"/>
  <unicode hex="00E6"/>
  <outline>
    <contour>
      <point x="226" y="-9" type="curve" smooth="yes"/>
      <point x="309" y="-9"/>
      <point x="373" y="21"/>
      <point x="429" y="84" type="curve"/>
      <point x="476" y="26"/>
      <point x="546" y="-10"/>
      <point x="627" y="-10" type="curve" smooth="yes"/>
      <point x="704" y="-10"/>
      <point x="764" y="12"/>
      <point x="825" y="63" type="curve"/>
      <point x="752" y="130" type="line"/>
      <point x="724" y="101"/>
      <point x="680" y="83"/>
      <point x="633" y="83" type="curve" smooth="yes"/>
      <point x="555" y="83"/>
      <point x="493" y="142"/>
      <point x="483" y="223" type="curve"/>
      <point x="853" y="223" type="line"/>
      <point x="853" y="250" type="line" smooth="yes"/>
      <point x="853" y="400"/>
      <point x="753" y="509"/>
      <point x="616" y="509" type="curve" smooth="yes"/>
      <point x="546" y="509"/>
      <point x="486" y="480"/>
      <point x="444" y="431" type="curve"/>
      <point x="413" y="482"/>
      <point x="356" y="509"/>
      <point x="278" y="509" type="curve" smooth="yes"/>
      <point x="211" y="509"/>
      <point x="145" y="492"/>
      <point x="70" y="458" type="curve"/>
      <point x="110" y="376" type="line"/>
      <point x="168" y="403"/>
      <point x="214" y="415"/>
      <point x="256" y="415" type="curve" smooth="yes"/>
      <point x="333" y="415"/>
      <point x="371" y="381"/>
      <point x="371" y="315" type="curve" smooth="yes"/>
      <point x="371" y="260" type="line"/>
      <point x="328" y="281"/>
      <point x="283" y="291"/>
      <point x="236" y="291" type="curve" smooth="yes"/>
      <point x="118" y="291"/>
      <point x="46" y="235"/>
      <point x="46" y="146" type="curve" smooth="yes"/>
      <point x="46" y="54"/>
      <point x="119" y="-9"/>
    </contour>
    <contour>
      <point x="484" y="293" type="line"/>
      <point x="497" y="368"/>
      <point x="547" y="417"/>
      <point x="615" y="417" type="curve" smooth="yes"/>
      <point x="682" y="417"/>
      <point x="734" y="366"/>
      <point x="746" y="293" type="curve"/>
    </contour>
    <contour>
      <point x="252" y="71" type="curve" smooth="yes"/>
      <point x="190" y="71"/>
      <point x="150" y="101"/>
      <point x="150" y="147" type="curve" smooth="yes"/>
      <point x="150" y="192"/>
      <point x="190" y="220"/>
      <point x="256" y="220" type="curve" smooth="yes"/>
      <point x="301" y="220"/>
      <point x="340" y="212"/>
      <point x="377" y="193" type="curve"/>
      <point x="381" y="174"/>
      <point x="387" y="157"/>
      <point x="394" y="140" type="curve"/>
      <point x="358" y="95"/>
      <point x="309" y="71"/>
    </contour>
  </outline>
</glyph>
<glyph name="ccedilla" format="2">
  <advance width="523"/>
  <unicode hex="00E7"/>
  <outline>
    <contour>
      <point x="293" y="-242" type="curve" smooth="yes"/>
      <point x="363" y="-242"/>
      <point x="413" y="-199"/>
      <point x="413" y="-141" type="curve" smooth="yes"/>
      <point x="413" y="-93"/>
      <point x="375" y="-62"/>
      <point x="314" y="-59" type="curve"/>
      <point x="326" y="-7" type="line"/>
      <point x="394" y="-2"/>
      <point x="456" y="28"/>
      <point x="500" y="76" type="curve"/>
      <point x="430" y="148" type="line"/>
      <point x="395" y="110"/>
      <point x="352" y="90"/>
      <point x="304" y="90" type="curve" smooth="yes"/>
      <point x="223" y="90"/>
      <point x="160" y="159"/>
      <point x="160" y="250" type="curve" smooth="yes"/>
      <point x="160" y="340"/>
      <point x="223" y="410"/>
      <point x="304" y="410" type="curve" smooth="yes"/>
      <point x="352" y="410"/>
      <point x="395" y="390"/>
      <point x="430" y="351" type="curve"/>
      <point x="500" y="424" type="line"/>
      <point x="450" y="478"/>
      <point x="378" y="509"/>
      <point x="300" y="509" type="curve" smooth="yes"/>
      <point x="157" y="509"/>
      <point x="47" y="395"/>
      <point x="47" y="250" type="curve" smooth="yes"/>
      <point x="47" y="115"/>
      <point x="142" y="8"/>
      <point x="270" y="-7" type="curve"/>
      <point x="247" y="-101" type="line"/>
      <point x="283" y="-101" type="line" smooth="yes"/>
      <point x="324" y="-101"/>
      <point x="347" y="-116"/>
      <point x="347" y="-143" type="curve" smooth="yes"/>
      <point x="347" y="-172"/>
      <point x="326" y="-188"/>
      <point x="287" y="-188" type="curve" smooth="yes"/>
      <point x="260" y="-188"/>
      <point x="232" y="-178"/>
      <point x="209" y="-160" type="curve"/>
      <point x="172" y="-203" type="line"/>
      <point x="201" y="-229"/>
      <point x="242" y="-242"/>
    </contour>
  </outline>
</glyph>
<glyph name="eth" format="2">
  <advance width="593"/>
  <unicode hex="00F0"/>
  <outline>
    <contour>
      <point x="289" y="-10" type="curve" smooth="yes"/>
      <point x="444" y="-10"/>
      <point x="544" y="112"/>
      <point x="544" y="298" type="curve" smooth="yes"/>
      <point x="544" y="432"/>
      <point x="503" y="546"/>
      <point x="426" y="630" type="curve"/>
      <point x="508" y="684" type="line"/>
      <point x="469" y="742" type="line"/>
      <point x="375" y="680" type="line"/>
      <point x="338" y="709"/>
      <point x="296" y="733"/>
      <point x="249" y="752" type="curve"/>
      <point x="195" y="675" type="line"/>
      <point x="231" y="662"/>
      <point x="263" y="645"/>
      <point x="292" y="624" type="curve"/>
      <point x="217" y="574" type="line"/>
      <point x="257" y="517" type="line"/>
      <point x="345" y="575" type="line"/>
      <point x="394" y="523"/>
      <point x="426" y="455"/>
      <point x="436" y="379" type="curve"/>
      <point x="407" y="433"/>
      <point x="343" y="470"/>
      <point x="268" y="470" type="curve" smooth="yes"/>
      <point x="143" y="470"/>
      <point x="47" y="369"/>
      <point x="47" y="237" type="curve" smooth="yes"/>
      <point x="47" y="98"/>
      <point x="152" y="-10"/>
    </contour>
    <contour>
      <point x="293" y="87" type="curve" smooth="yes"/>
      <point x="214" y="87"/>
      <point x="154" y="152"/>
      <point x="154" y="236" type="curve" smooth="yes"/>
      <point x="154" y="319"/>
      <point x="214" y="384"/>
      <point x="293" y="384" type="curve" smooth="yes"/>
      <point x="372" y="384"/>
      <point x="432" y="319"/>
      <point x="432" y="236" type="curve" smooth="yes"/>
      <point x="432" y="152"/>
      <point x="372" y="87"/>
    </contour>
  </outline>
</glyph>
<glyph name="oslash" format="2">
  <advance width="597"/>
  <unicode hex="00F8"/>
  <outline>
    <contour>
      <point x="299" y="-9" type="curve" smooth="yes"/>
      <point x="442" y="-9"/>
      <point x="550" y="102"/>
      <point x="550" y="250" type="curve" smooth="yes"/>
      <point x="550" y="319"/>
      <point x="526" y="380"/>
      <point x="486" y="426" type="curve"/>
      <point x="550" y="501" type="line"/>
      <point x="470" y="501" type="line"/>
      <point x="441" y="465" type="line"/>
      <point x="401" y="493"/>
      <point x="353" y="509"/>
      <point x="299" y="509" type="curve" smooth="yes"/>
      <point x="155" y="509"/>
      <point x="47" y="398"/>
      <point x="47" y="250" type="curve" smooth="yes"/>
      <point x="47" y="181"/>
      <point x="71" y="120"/>
      <point x="110" y="74" type="curve"/>
      <point x="48" y="0" type="line"/>
      <point x="128" y="0" type="line"/>
      <point x="156" y="34" type="line"/>
      <point x="196" y="7"/>
      <point x="245" y="-9"/>
    </contour>
    <contour>
      <point x="182" y="158" type="line"/>
      <point x="167" y="183"/>
      <point x="158" y="215"/>
      <point x="158" y="250" type="curve" smooth="yes"/>
      <point x="158" y="343"/>
      <point x="217" y="413"/>
      <point x="299" y="413" type="curve" smooth="yes"/>
      <point x="327" y="413"/>
      <point x="354" y="404"/>
      <point x="375" y="388" type="curve"/>
    </contour>
    <contour>
      <point x="299" y="87" type="curve" smooth="yes"/>
      <point x="270" y="87"/>
      <point x="244" y="96"/>
      <point x="222" y="112" type="curve"/>
      <point x="415" y="342" type="line"/>
      <point x="430" y="317"/>
      <point x="439" y="285"/>
      <point x="439" y="250" type="curve" smooth="yes"/>
      <point x="439" y="156"/>
      <point x="380" y="87"/>
    </contour>
  </outline>
</glyph>
<glyph name="thorn" format="2">
  <advance width="610"/>
  <unicode hex="00FE"/>
  <outline>
    <contour>
      <point x="70" y="-209" type="line"/>
      <point x="183" y="-209" type="line"/>
      <point x="183" y="59" type="line"/>
      <point x="219" y="17"/>
      <point x="271" y="-5"/>
      <point x="330" y="-5" type="curve" smooth="yes"/>
      <point x="461" y="-5"/>
      <point x="563" y="107"/>
      <point x="563" y="250" type="curve" smooth="yes"/>
      <point x="563" y="392"/>
      <point x="464" y="505"/>
      <point x="337" y="505" type="curve" smooth="yes"/>
      <point x="274" y="505"/>
      <point x="218" y="478"/>
      <point x="183" y="432" type="curve"/>
      <point x="183" y="737" type="line"/>
      <point x="70" y="717" type="line"/>
    </contour>
    <contour>
      <point x="303" y="410" type="curve" smooth="yes"/>
      <point x="388" y="410"/>
      <point x="452" y="341"/>
      <point x="452" y="250" type="curve" smooth="yes"/>
      <point x="452" y="158"/>
      <point x="389" y="89"/>
      <point x="303" y="89" type="curve" smooth="yes"/>
      <point x="255" y="89"/>
      <point x="212" y="110"/>
      <point x="183" y="145" type="curve"/>
      <point x="183" y="354" type="line"/>
      <point x="212" y="390"/>
      <point x="253" y="410"/>
    </contour>
  </outline>
</glyph>
<glyph name="Aogonek" format="2">
  <advance width="697"/>
  <unicode hex="0104"/>
  <outline>
    <contour>
      <point x="636" y="-231" type="curve" smooth="yes"/>
      <point x="668" y="-231"/>
      <point x="698" y="-223"/>
      <point x="719" y="-210" type="curve"/>
      <point x="702" y="-157" type="line"/>
      <point x="691" y="-165"/>
      <point x="673" y="-169"/>
      <point x="655" y="-169" type="curve" smooth="yes"/>
      <point x="619" y="-169"/>
      <point x="596" y="-150"/>
      <point x="596" y="-117" type="curve" smooth="yes"/>
      <point x="596" y="-78"/>
      <point x="626" y="-42"/>
      <point x="691" y="0" type="curve"/>
      <point x="420" y="700" type="line"/>
      <point x="281" y="700" type="line"/>
      <point x="6" y="0" type="line"/>
      <point x="131" y="0" type="line"/>
      <point x="203" y="196" type="line"/>
      <point x="490" y="196" type="line"/>
      <point x="562" y="0" type="line"/>
      <point x="624" y="0" type="line"/>
      <point x="558" y="-46"/>
      <point x="530" y="-87"/>
      <point x="530" y="-136" type="curve" smooth="yes"/>
      <point x="530" y="-193"/>
      <point x="572" y="-231"/>
    </contour>
    <contour>
      <point x="238" y="290" type="line"/>
      <point x="347" y="586" type="line"/>
      <point x="457" y="290" type="line"/>
    </contour>
  </outline>
</glyph>
<glyph name="aogonek" format="2">
  <advance width="550"/>
  <unicode hex="0105"/>
  <outline>
    <contour>
      <point x="428" y="-231" type="curve" smooth="yes"/>
      <point x="459" y="-231"/>
      <point x="490" y="-223"/>
      <point x="510" y="-210" type="curve"/>
      <point x="493" y="-157" type="line"/>
      <point x="482" y="-165"/>
      <point x="464" y="-169"/>
      <point x="447" y="-169" type="curve" smooth="yes"/>
      <point x="410" y="-169"/>
      <point x="388" y="-150"/>
      <point x="388" y="-117" type="curve" smooth="yes"/>
      <point x="388" y="-78"/>
      <point x="418" y="-42"/>
      <point x="483" y="0" type="curve"/>
      <point x="483" y="327" type="line" smooth="yes"/>
      <point x="483" y="443"/>
      <point x="409" y="509"/>
      <point x="278" y="509" type="curve" smooth="yes"/>
      <point x="211" y="509"/>
      <point x="145" y="492"/>
      <point x="70" y="458" type="curve"/>
      <point x="110" y="376" type="line"/>
      <point x="168" y="403"/>
      <point x="214" y="415"/>
      <point x="256" y="415" type="curve" smooth="yes"/>
      <point x="333" y="415"/>
      <point x="371" y="381"/>
      <point x="371" y="315" type="curve" smooth="yes"/>
      <point x="371" y="259" type="line"/>
      <point x="327" y="281"/>
      <point x="283" y="291"/>
      <point x="236" y="291" type="curve" smooth="yes"/>
      <point x="118" y="291"/>
      <point x="44" y="234"/>
      <point x="44" y="144" type="curve" smooth="yes"/>
      <point x="44" y="54"/>
      <point x="117" y="-9"/>
      <point x="222" y="-9" type="curve" smooth="yes"/>
      <point x="280" y="-9"/>
      <point x="328" y="10"/>
      <point x="371" y="52" type="curve"/>
      <point x="371" y="0" type="line"/>
      <point x="415" y="0" type="line"/>
      <point x="349" y="-46"/>
      <point x="321" y="-87"/>
      <point x="321" y="-136" type="curve" smooth="yes"/>
      <point x="321" y="-193"/>
      <point x="364" y="-231"/>
    </contour>
    <contour>
      <point x="253" y="71" type="curve" smooth="yes"/>
      <point x="190" y="71"/>
      <point x="150" y="100"/>
      <point x="150" y="146" type="curve" smooth="yes"/>
      <point x="150" y="191"/>
      <point x="191" y="218"/>
      <point x="256" y="218" type="curve" smooth="yes"/>
      <point x="299" y="218"/>
      <point x="335" y="211"/>
      <point x="371" y="194" type="curve"/>
      <point x="371" y="113" type="line"/>
      <point x="337" y="84"/>
      <point x="298" y="71"/>
    </contour>
  </outline>
</glyph>
<glyph name="Dcroat" format="2">
  <advance width="771"/>
  <unicode hex="0110"/>
  <outline>
    <contour>
      <point x="113" y="0" type="line"/>
      <point x="369" y="0" type="line" smooth="yes"/>
      <point x="570" y="0"/>
      <point x="720" y="153"/>
      <point x="720" y="350" type="curve" smooth="yes"/>
      <point x="720" y="547"/>
      <point x="570" y="700"/>
      <point x="369" y="700" type="curve" smooth="yes"/>
      <point x="113" y="700" type="line"/>
      <point x="113" y="397" type="line"/>
      <point x="24" y="397" type="line"/>
      <point x="24" y="309" type="line"/>
      <point x="113" y="309" type="line"/>
    </contour>
    <contour>
      <point x="233" y="104" type="line"/>
      <point x="233" y="309" type="line"/>
      <point x="388" y="309" type="line"/>
      <point x="388" y="397" type="line"/>
      <point x="233" y="397" type="line"/>
      <point x="233" y="596" type="line"/>
      <point x="372" y="596" type="line" smooth="yes"/>
      <point x="498" y="596"/>
      <point x="596" y="489"/>
      <point x="596" y="350" type="curve" smooth="yes"/>
      <point x="596" y="211"/>
      <point x="498" y="104"/>
      <point x="372" y="104" type="curve" smooth="yes"/>
    </contour>
  </outline>
</glyph>
<glyph name="Eogonek" format="2">
  <advance width="641"/>
  <unicode hex="0118"/>
  <outline>
    <contour>
      <point x="616" y="-210" type="curve"/>
      <point x="599" y="-157" type="line"/>
      <point x="588" y="-165"/>
      <point x="570" y="-169"/>
      <point x="553" y="-169" type="curve" smooth="yes"/>
      <point x="516" y="-169"/>
      <point x="494" y="-150"/>
      <point x="494" y="-117" type="curve" smooth="yes"/>
      <point x="494" y="-78"/>
      <point x="523" y="-42"/>
      <point x="589" y="0" type="curve"/>
      <point x="589" y="102" type="line"/>
      <point x="204" y="102" type="line"/>
      <point x="204" y="303" type="line"/>
      <point x="470" y="303" type="line"/>
      <point x="470" y="403" type="line"/>
      <point x="204" y="403" type="line"/>
      <point x="204" y="598" type="line"/>
      <point x="585" y="598" type="line"/>
      <point x="585" y="700" type="line"/>
      <point x="84" y="700" type="line"/>
      <point x="84" y="0" type="line"/>
      <point x="521" y="0" type="line"/>
      <point x="455" y="-46"/>
      <point x="427" y="-87"/>
      <point x="427" y="-136" type="curve" smooth="yes"/>
      <point x="427" y="-193"/>
      <point x="469" y="-231"/>
      <point x="534" y="-231" type="curve" smooth="yes"/>
      <point x="565" y="-231"/>
      <point x="596" y="-223"/>
    </contour>
  </outline>
</glyph>
<glyph name="eogonek" format="2">
  <advance width="573"/>
  <unicode hex="0119"/>
  <outline>
    <contour>
      <point x="327" y="-231" type="curve" smooth="yes"/>
      <point x="358" y="-231"/>
      <point x="388" y="-223"/>
      <point x="409" y="-210" type="curve"/>
      <point x="392" y="-157" type="line"/>
      <point x="381" y="-165"/>
      <point x="363" y="-169"/>
      <point x="345" y="-169" type="curve" smooth="yes"/>
      <point x="309" y="-169"/>
      <point x="286" y="-150"/>
      <point x="286" y="-117" type="curve" smooth="yes"/>
      <point x="286" y="-78"/>
      <point x="316" y="-42"/>
      <point x="380" y="0" type="curve"/>
      <point x="423" y="10"/>
      <point x="463" y="31"/>
      <point x="501" y="63" type="curve"/>
      <point x="427" y="130" type="line"/>
      <point x="399" y="101"/>
      <point x="355" y="83"/>
      <point x="308" y="83" type="curve" smooth="yes"/>
      <point x="230" y="83"/>
      <point x="169" y="142"/>
      <point x="158" y="223" type="curve"/>
      <point x="528" y="223" type="line"/>
      <point x="528" y="250" type="line" smooth="yes"/>
      <point x="528" y="400"/>
      <point x="428" y="509"/>
      <point x="291" y="509" type="curve" smooth="yes"/>
      <point x="153" y="509"/>
      <point x="47" y="397"/>
      <point x="47" y="250" type="curve" smooth="yes"/>
      <point x="47" y="104"/>
      <point x="158" y="-10"/>
      <point x="300" y="-10" type="curve"/>
      <point x="244" y="-52"/>
      <point x="220" y="-90"/>
      <point x="220" y="-136" type="curve" smooth="yes"/>
      <point x="220" y="-193"/>
      <point x="262" y="-231"/>
    </contour>
    <contour>
      <point x="159" y="293" type="line"/>
      <point x="172" y="368"/>
      <point x="222" y="417"/>
      <point x="290" y="417" type="curve" smooth="yes"/>
      <point x="357" y="417"/>
      <point x="409" y="366"/>
      <point x="421" y="293" type="curve"/>
    </contour>
  </outline>
</glyph>
<glyph name="hcircumflex" format="2">
  <advance width="582"/>
  <unicode hex="0125"/>
  <outline>
    <contour>
      <point x="70" y="0" type="line"/>
      <point x="183" y="0" type="line"/>
      <point x="183" y="357" type="line"/>
      <point x="209" y="397"/>
      <point x="246" y="418"/>
      <point x="292" y="418" type="curve" smooth="yes"/>
      <point x="361" y="418"/>
      <point x="402" y="370"/>
      <point x="402" y="298" type="curve" smooth="yes"/>
      <point x="402" y="0" type="line"/>
      <point x="516" y="0" type="line"/>
      <point x="516" y="330" type="line" smooth="yes"/>
      <point x="516" y="435"/>
      <point x="445" y="509"/>
      <point x="341" y="509" type="curve" smooth="yes"/>
      <point x="274" y="509"/>
      <point x="220" y="477"/>
      <point x="183" y="420" type="curve"/>
      <point x="183" y="727" type="line"/>
      <point x="70" y="727" type="line"/>
    </contour>
    <contour>
      <point x="-44" y="798" type="line"/>
      <point x="44" y="798" type="line"/>
      <point x="132" y="882" type="line"/>
      <point x="220" y="798" type="line"/>
      <point x="310" y="798" type="line"/>
      <point x="190" y="936" type="line"/>
      <point x="76" y="936" type="line"/>
    </contour>
  </outline>
</glyph>
<glyph name="Hbar" format="2">
  <advance width="777"/>
  <unicode hex="0126"/>
  <outline>
    <contour>
      <point x="95" y="0" type="line"/>
      <point x="215" y="0" type="line"/>
      <point x="215" y="299" type="line"/>
      <point x="563" y="299" type="line"/>
      <point x="563" y="0" type="line"/>
      <point x="683" y="0" type="line"/>
      <point x="683" y="508" type="line"/>
      <point x="765" y="508" type="line"/>
      <point x="765" y="596" type="line"/>
      <point x="683" y="596" type="line"/>
      <point x="683" y="700" type="line"/>
      <point x="563" y="700" type="line"/>
      <point x="563" y="596" type="line"/>
      <point x="215" y="596" type="line"/>
      <point x="215" y="700" type="line"/>
      <point x="95" y="700" type="line"/>
      <point x="95" y="596" type="line"/>
      <point x="12" y="596" type="line"/>
      <point x="12" y="508" type="line"/>
      <point x="95" y="508" type="line"/>
    </contour>
    <contour>
      <point x="215" y="400" type="line"/>
      <point x="215" y="508" type="line"/>
      <point x="563" y="508" type="line"/>
      <point x="563" y="400" type="line"/>
    </contour>
  </outline>
</glyph>
<glyph name="hbar" format="2">
  <advance width="590"/>
  <unicode hex="0127"/>
  <outline>
    <contour>
      <point x="77" y="0" type="line"/>
      <point x="191" y="0" type="line"/>
      <point x="191" y="357" type="line"/>
      <point x="217" y="397"/>
      <point x="254" y="418"/>
      <point x="300" y="418" type="curve" smooth="yes"/>
      <point x="367" y="418"/>
      <point x="410" y="371"/>
      <point x="410" y="298" type="curve" smooth="yes"/>
      <point x="410" y="0" type="line"/>
      <point x="524" y="0" type="line"/>
      <point x="524" y="330" type="line" smooth="yes"/>
      <point x="524" y="436"/>
      <point x="452" y="509"/>
      <point x="349" y="509" type="curve" smooth="yes"/>
      <point x="283" y="509"/>
      <point x="229" y="478"/>
      <point x="191" y="419" type="curve"/>
      <point x="191" y="567" type="line"/>
      <point x="317" y="567" type="line"/>
      <point x="317" y="637" type="line"/>
      <point x="191" y="637" type="line"/>
      <point x="191" y="737" type="line"/>
      <point x="77" y="717" type="line"/>
      <point x="77" y="637" type="line"/>
      <point x="17" y="637" type="line"/>
      <point x="17" y="567" type="line"/>
      <point x="77" y="567" type="line"/>
    </contour>
  </outline>
</glyph>
<glyph name="Iogonek" format="2">
  <advance width="278"/>
  <unicode hex="012E"/>
  <outline>
    <contour>
      <point x="144" y="-231" type="curve" smooth="yes"/>
      <point x="175" y="-231"/>
      <point x="205" y="-223"/>
      <point x="226" y="-210" type="curve"/>
      <point x="209" y="-157" type="line"/>
      <point x="198" y="-165"/>
      <point x="180" y="-169"/>
      <point x="162" y="-169" type="curve" smooth="yes"/>
      <point x="126" y="-169"/>
      <point x="104" y="-150"/>
      <point x="104" y="-117" type="curve" smooth="yes"/>
      <point x="104" y="-78"/>
      <point x="133" y="-42"/>
      <point x="199" y="0" type="curve"/>
      <point x="199" y="700" type="line"/>
      <point x="79" y="700" type="line"/>
      <point x="79" y="0" type="line"/>
      <point x="131" y="0" type="line"/>
      <point x="65" y="-46"/>
      <point x="37" y="-87"/>
      <point x="37" y="-136" type="curve" smooth="yes"/>
      <point x="37" y="-193"/>
      <point x="79" y="-231"/>
    </contour>
  </outline>
</glyph>
<glyph name="iogonek" format="2">
  <advance width="252"/>
  <unicode hex="012F"/>
  <outline>
    <contour>
      <point x="126" y="603" type="curve" smooth="yes"/>
      <point x="164" y="603"/>
      <point x="196" y="634"/>
      <point x="196" y="672" type="curve" smooth="yes"/>
      <point x="196" y="710"/>
      <point x="164" y="742"/>
      <point x="126" y="742" type="curve" smooth="yes"/>
      <point x="87" y="742"/>
      <point x="56" y="710"/>
      <point x="56" y="672" type="curve" smooth="yes"/>
      <point x="56" y="634"/>
      <point x="87" y="603"/>
    </contour>
    <contour>
      <point x="127" y="-231" type="curve" smooth="yes"/>
      <point x="158" y="-231"/>
      <point x="189" y="-223"/>
      <point x="209" y="-210" type="curve"/>
      <point x="192" y="-157" type="line"/>
      <point x="181" y="-165"/>
      <point x="163" y="-169"/>
      <point x="146" y="-169" type="curve" smooth="yes"/>
      <point x="109" y="-169"/>
      <point x="87" y="-150"/>
      <point x="87" y="-117" type="curve" smooth="yes"/>
      <point x="87" y="-78"/>
      <point x="117" y="-42"/>
      <point x="182" y="0" type="curve"/>
      <point x="182" y="501" type="line"/>
      <point x="69" y="501" type="line"/>
      <point x="69" y="0" type="line"/>
      <point x="114" y="0" type="line"/>
      <point x="48" y="-46"/>
      <point x="20" y="-87"/>
      <point x="20" y="-136" type="curve" smooth="yes"/>
      <point x="20" y="-193"/>
      <point x="63" y="-231"/>
    </contour>
  </outline>
</glyph>
<glyph name="kgreenlandic" format="2">
  <advance width="541"/>
  <unicode hex="0138"/>
  <outline>
    <contour>
      <point x="70" y="0" type="line"/>
      <point x="183" y="0" type="line"/>
      <point x="183" y="231" type="line"/>
      <point x="389" y="0" type="line"/>
      <point x="533" y="0" type="line"/>
      <point x="290" y="269" type="line"/>
      <point x="521" y="501" type="line"/>
      <point x="391" y="501" type="line"/>
      <point x="183" y="288" type="line"/>
      <point x="183" y="501" type="line"/>
      <point x="70" y="501" type="line"/>
    </contour>
  </outline>
</glyph>
<glyph name="lacute" format="2">
  <advance width="252"/>
  <unicode hex="013A"/>
  <outline>
    <contour>
      <point x="70" y="0" type="line"/>
      <point x="183" y="0" type="line"/>
      <point x="183" y="727" type="line"/>
      <point x="70" y="727" type="line"/>
    </contour>
    <contour>
      <point x="64" y="789" type="line"/>
      <point x="163" y="789" type="line"/>
      <point x="329" y="922" type="line"/>
      <point x="187" y="922" type="line"/>
    </contour>
  </outline>
</glyph>
<glyph name="Lslash" format="2">
  <advance width="649"/>
  <unicode hex="0141"/>
  <outline>
    <contour>
      <point x="107" y="0" type="line"/>
      <point x="600" y="0" type="line"/>
      <point x="600" y="104" type="line"/>
      <point x="227" y="104" type="line"/>
      <point x="227" y="307" type="line"/>
      <point x="393" y="423" type="line"/>
      <point x="393" y="528" type="line"/>
      <point x="227" y="412" type="line"/>
      <point x="227" y="700" type="line"/>
      <point x="107" y="700" type="line"/>
      <point x="107" y="334" type="line"/>
      <point x="12" y="268" type="line"/>
      <point x="12" y="163" type="line"/>
      <point x="107" y="229" type="line"/>
    </contour>
  </outline>
</glyph>
<glyph name="lslash" format="2">
  <advance width="300"/>
  <unicode hex="0142"/>
  <outline>
    <contour>
      <point x="94" y="0" type="line"/>
      <point x="207" y="0" type="line"/>
      <point x="207" y="349" type="line"/>
      <point x="299" y="417" type="line"/>
      <point x="299" y="527" type="line"/>
      <point x="207" y="459" type="line"/>
      <point x="207" y="737" type="line"/>
      <point x="94" y="717" type="line"/>
      <point x="94" y="377" type="line"/>
      <point x="1" y="307" type="line"/>
      <point x="1" y="197" type="line"/>
      <point x="94" y="267" type="line"/>
    </contour>
  </outline>
</glyph>
<glyph name="Eng" format="2">
  <advance width="761"/>
  <unicode hex="014A"/>
  <outline>
    <contour>
      <point x="531" y="-219" type="curve" smooth="yes"/>
      <point x="625" y="-219"/>
      <point x="677" y="-167"/>
      <point x="677" y="-75" type="curve" smooth="yes"/>
      <point x="677" y="700" type="line"/>
      <point x="564" y="700" type="line"/>
      <point x="564" y="197" type="line"/>
      <point x="201" y="700" type="line"/>
      <point x="84" y="700" type="line"/>
      <point x="84" y="0" type="line"/>
      <point x="197" y="0" type="line"/>
      <point x="197" y="517" type="line"/>
      <point x="569" y="2" type="line"/>
      <point x="569" y="-67" type="line" smooth="yes"/>
      <point x="569" y="-108"/>
      <point x="551" y="-126"/>
      <point x="511" y="-126" type="curve" smooth="yes"/>
      <point x="495" y="-126"/>
      <point x="483" y="-125"/>
      <point x="471" y="-122" type="curve"/>
      <point x="471" y="-211" type="line"/>
      <point x="486" y="-216"/>
      <point x="511" y="-219"/>
    </contour>
  </outline>
</glyph>
<glyph name="eng" format="2">
  <advance width="582"/>
  <unicode hex="014B"/>
  <outline>
    <contour>
      <point x="368" y="-219" type="curve" smooth="yes"/>
      <point x="463" y="-219"/>
      <point x="516" y="-167"/>
      <point x="516" y="-74" type="curve" smooth="yes"/>
      <point x="516" y="330" type="line" smooth="yes"/>
      <point x="516" y="436"/>
      <point x="444" y="509"/>
      <point x="341" y="509" type="curve" smooth="yes"/>
      <point x="276" y="509"/>
      <point x="221" y="478"/>
      <point x="183" y="419" type="curve"/>
      <point x="183" y="501" type="line"/>
      <point x="70" y="501" type="line"/>
      <point x="70" y="0" type="line"/>
      <point x="183" y="0" type="line"/>
      <point x="183" y="357" type="line"/>
      <point x="209" y="397"/>
      <point x="246" y="418"/>
      <point x="292" y="418" type="curve" smooth="yes"/>
      <point x="359" y="418"/>
      <point x="402" y="371"/>
      <point x="402" y="298" type="curve" smooth="yes"/>
      <point x="402" y="-68" type="line" smooth="yes"/>
      <point x="402" y="-106"/>
      <point x="386" y="-123"/>
      <point x="348" y="-123" type="curve" smooth="yes"/>
      <point x="331" y="-123"/>
      <point x="320" y="-122"/>
      <point x="307" y="-119" type="curve"/>
      <point x="307" y="-211" type="line"/>
      <point x="325" y="-216"/>
      <point x="349" y="-219"/>
    </contour>
  </outline>
</glyph>
<glyph name="OE" format="2">
  <advance width="1067"/>
  <unicode hex="0152"/>
  <outline>
    <contour>
      <point x="400" y="0" type="curve" smooth="yes"/>
      <point x="1015" y="0" type="line"/>
      <point x="1015" y="105" type="line"/>
      <point x="619" y="105" type="line"/>
      <point x="674" y="153"/>
      <point x="711" y="224"/>
      <point x="720" y="302" type="curve"/>
      <point x="895" y="302" type="line"/>
      <point x="895" y="404" type="line"/>
      <point x="719" y="404" type="line"/>
      <point x="709" y="481"/>
      <point x="673" y="549"/>
      <point x="619" y="595" type="curve"/>
      <point x="1015" y="595" type="line"/>
      <point x="1015" y="700" type="line"/>
      <point x="400" y="700" type="line" smooth="yes"/>
      <point x="200" y="700"/>
      <point x="51" y="550"/>
      <point x="51" y="350" type="curve" smooth="yes"/>
      <point x="51" y="150"/>
      <point x="200" y="0"/>
    </contour>
    <contour>
      <point x="390" y="104" type="curve" smooth="yes"/>
      <point x="265" y="104"/>
      <point x="170" y="211"/>
      <point x="170" y="350" type="curve" smooth="yes"/>
      <point x="170" y="489"/>
      <point x="265" y="596"/>
      <point x="390" y="596" type="curve" smooth="yes"/>
      <point x="515" y="596"/>
      <point x="610" y="489"/>
      <point x="610" y="350" type="curve" smooth="yes"/>
      <point x="610" y="211"/>
      <point x="515" y="104"/>
    </contour>
  </outline>
</glyph>
<glyph name="oe" format="2">
  <advance width="967"/>
  <unicode hex="0153"/>
  <outline>
    <contour>
      <point x="299" y="-9" type="curve" smooth="yes"/>
      <point x="382" y="-9"/>
      <point x="453" y="32"/>
      <point x="496" y="97" type="curve"/>
      <point x="539" y="32"/>
      <point x="612" y="-10"/>
      <point x="697" y="-10" type="curve" smooth="yes"/>
      <point x="773" y="-10"/>
      <point x="834" y="12"/>
      <point x="895" y="63" type="curve"/>
      <point x="821" y="130" type="line"/>
      <point x="793" y="101"/>
      <point x="749" y="83"/>
      <point x="702" y="83" type="curve" smooth="yes"/>
      <point x="624" y="83"/>
      <point x="563" y="142"/>
      <point x="552" y="223" type="curve"/>
      <point x="922" y="223" type="line"/>
      <point x="922" y="250" type="line" smooth="yes"/>
      <point x="922" y="400"/>
      <point x="822" y="509"/>
      <point x="685" y="509" type="curve" smooth="yes"/>
      <point x="605" y="509"/>
      <point x="535" y="468"/>
      <point x="494" y="405" type="curve"/>
      <point x="452" y="468"/>
      <point x="381" y="509"/>
      <point x="299" y="509" type="curve" smooth="yes"/>
      <point x="155" y="509"/>
      <point x="47" y="398"/>
      <point x="47" y="250" type="curve" smooth="yes"/>
      <point x="47" y="103"/>
      <point x="155" y="-9"/>
    </contour>
    <contour>
      <point x="299" y="88" type="curve" smooth="yes"/>
      <point x="217" y="88"/>
      <point x="158" y="157"/>
      <point x="158" y="250" type="curve" smooth="yes"/>
      <point x="158" y="343"/>
      <point x="217" y="413"/>
      <point x="299" y="413" type="curve" smooth="yes"/>
      <point x="380" y="413"/>
      <point x="440" y="343"/>
      <point x="440" y="250" type="curve" smooth="yes"/>
      <point x="440" y="157"/>
      <point x="380" y="88"/>
    </contour>
    <contour>
      <point x="553" y="293" type="line"/>
      <point x="566" y="368"/>
      <point x="616" y="418"/>
      <point x="684" y="418" type="curve" smooth="yes"/>
      <point x="751" y="418"/>
      <point x="803" y="366"/>
      <point x="815" y="293" type="curve"/>
    </contour>
  </outline>
</glyph>
<glyph name="Scedilla" format="2">
  <advance width="637"/>
  <unicode hex="015E"/>
  <outline>
    <contour>
      <point x="309" y="-245" type="curve" smooth="yes"/>
      <point x="378" y="-245"/>
      <point x="429" y="-202"/>
      <point x="429" y="-144" type="curve" smooth="yes"/>
      <point x="429" y="-96"/>
      <point x="391" y="-65"/>
      <point x="330" y="-61" type="curve"/>
      <point x="342" y="-11" type="line"/>
      <point x="496" y="-2"/>
      <point x="599" y="87"/>
      <point x="599" y="209" type="curve" smooth="yes"/>
      <point x="599" y="315"/>
      <point x="533" y="377"/>
      <point x="392" y="402" type="curve" smooth="yes"/>
      <point x="267" y="423" type="line" smooth="yes"/>
      <point x="191" y="436"/>
      <point x="159" y="461"/>
      <point x="159" y="512" type="curve" smooth="yes"/>
      <point x="159" y="569"/>
      <point x="215" y="612"/>
      <point x="299" y="612" type="curve" smooth="yes"/>
      <point x="378" y="612"/>
      <point x="453" y="584"/>
      <point x="523" y="531" type="curve"/>
      <point x="584" y="621" type="line"/>
      <point x="504" y="680"/>
      <point x="408" y="711"/>
      <point x="303" y="711" type="curve" smooth="yes"/>
      <point x="146" y="711"/>
      <point x="45" y="627"/>
      <point x="45" y="500" type="curve" smooth="yes"/>
      <point x="45" y="404"/>
      <point x="104" y="343"/>
      <point x="225" y="322" type="curve" smooth="yes"/>
      <point x="354" y="300" type="line" smooth="yes"/>
      <point x="447" y="284"/>
      <point x="481" y="257"/>
      <point x="481" y="200" type="curve" smooth="yes"/>
      <point x="481" y="135"/>
      <point x="417" y="88"/>
      <point x="325" y="88" type="curve" smooth="yes"/>
      <point x="244" y="88"/>
      <point x="179" y="116"/>
      <point x="89" y="190" type="curve"/>
      <point x="24" y="102" type="line"/>
      <point x="104" y="34"/>
      <point x="189" y="-3"/>
      <point x="286" y="-10" type="curve"/>
      <point x="263" y="-103" type="line"/>
      <point x="299" y="-103" type="line" smooth="yes"/>
      <point x="339" y="-103"/>
      <point x="363" y="-119"/>
      <point x="363" y="-146" type="curve" smooth="yes"/>
      <point x="363" y="-174"/>
      <point x="341" y="-191"/>
      <point x="303" y="-191" type="curve" smooth="yes"/>
      <point x="275" y="-191"/>
      <point x="248" y="-181"/>
      <point x="225" y="-163" type="curve"/>
      <point x="187" y="-206" type="line"/>
      <point x="217" y="-232"/>
      <point x="257" y="-245"/>
    </contour>
  </outline>
</glyph>
<glyph name="scedilla" format="2">
  <advance width="479"/>
  <unicode hex="015F"/>
  <outline>
    <contour>
      <point x="232" y="-246" type="curve" smooth="yes"/>
      <point x="302" y="-246"/>
      <point x="353" y="-203"/>
      <point x="353" y="-145" type="curve" smooth="yes"/>
      <point x="353" y="-97"/>
      <point x="315" y="-66"/>
      <point x="254" y="-62" type="curve"/>
      <point x="266" y="-9" type="line"/>
      <point x="370" y="1"/>
      <point x="445" y="67"/>
      <point x="445" y="153" type="curve" smooth="yes"/>
      <point x="445" y="228"/>
      <point x="397" y="274"/>
      <point x="297" y="292" type="curve" smooth="yes"/>
      <point x="208" y="309" type="line" smooth="yes"/>
      <point x="156" y="318"/>
      <point x="138" y="332"/>
      <point x="138" y="364" type="curve" smooth="yes"/>
      <point x="138" y="400"/>
      <point x="172" y="422"/>
      <point x="224" y="422" type="curve" smooth="yes"/>
      <point x="275" y="422"/>
      <point x="324" y="407"/>
      <point x="375" y="374" type="curve"/>
      <point x="428" y="449" type="line"/>
      <point x="364" y="489"/>
      <point x="301" y="509"/>
      <point x="231" y="509" type="curve" smooth="yes"/>
      <point x="114" y="509"/>
      <point x="37" y="448"/>
      <point x="37" y="354" type="curve" smooth="yes"/>
      <point x="37" y="279"/>
      <point x="84" y="234"/>
      <point x="182" y="216" type="curve" smooth="yes"/>
      <point x="270" y="201" type="line" smooth="yes"/>
      <point x="319" y="191"/>
      <point x="340" y="175"/>
      <point x="340" y="144" type="curve" smooth="yes"/>
      <point x="340" y="104"/>
      <point x="299" y="76"/>
      <point x="239" y="76" type="curve" smooth="yes"/>
      <point x="188" y="76"/>
      <point x="144" y="92"/>
      <point x="78" y="133" type="curve"/>
      <point x="25" y="58" type="line"/>
      <point x="72" y="19"/>
      <point x="136" y="-4"/>
      <point x="210" y="-9" type="curve"/>
      <point x="186" y="-104" type="line"/>
      <point x="223" y="-104" type="line" smooth="yes"/>
      <point x="263" y="-104"/>
      <point x="287" y="-120"/>
      <point x="287" y="-147" type="curve" smooth="yes"/>
      <point x="287" y="-175"/>
      <point x="265" y="-192"/>
      <point x="227" y="-192" type="curve" smooth="yes"/>
      <point x="199" y="-192"/>
      <point x="172" y="-182"/>
      <point x="149" y="-164" type="curve"/>
      <point x="111" y="-207" type="line"/>
      <point x="140" y="-233"/>
      <point x="181" y="-246"/>
    </contour>
  </outline>
</glyph>
<glyph name="Tcedilla" format="2">
  <advance width="638"/>
  <unicode hex="0162"/>
  <outline>
    <contour>
      <point x="311" y="-246" type="curve" smooth="yes"/>
      <point x="381" y="-246"/>
      <point x="432" y="-203"/>
      <point x="432" y="-145" type="curve" smooth="yes"/>
      <point x="432" y="-97"/>
      <point x="393" y="-66"/>
      <point x="333" y="-62" type="curve"/>
      <point x="347" y="0" type="line"/>
      <point x="379" y="0" type="line"/>
      <point x="379" y="596" type="line"/>
      <point x="613" y="596" type="line"/>
      <point x="613" y="700" type="line"/>
      <point x="25" y="700" type="line"/>
      <point x="25" y="596" type="line"/>
      <point x="259" y="596" type="line"/>
      <point x="259" y="0" type="line"/>
      <point x="291" y="0" type="line"/>
      <point x="265" y="-104" type="line"/>
      <point x="301" y="-104" type="line" smooth="yes"/>
      <point x="342" y="-104"/>
      <point x="366" y="-120"/>
      <point x="366" y="-147" type="curve" smooth="yes"/>
      <point x="366" y="-175"/>
      <point x="344" y="-192"/>
      <point x="306" y="-192" type="curve" smooth="yes"/>
      <point x="278" y="-192"/>
      <point x="251" y="-182"/>
      <point x="228" y="-164" type="curve"/>
      <point x="190" y="-207" type="line"/>
      <point x="219" y="-233"/>
      <point x="260" y="-246"/>
    </contour>
  </outline>
</glyph>
<glyph name="tcedilla" format="2">
  <advance width="414"/>
  <unicode hex="0163"/>
  <outline>
    <contour>
      <point x="247" y="-246" type="curve" smooth="yes"/>
      <point x="317" y="-246"/>
      <point x="368" y="-203"/>
      <point x="368" y="-145" type="curve" smooth="yes"/>
      <point x="368" y="-97"/>
      <point x="329" y="-66"/>
      <point x="269" y="-62" type="curve"/>
      <point x="281" y="-10" type="line"/>
      <point x="282" y="-10"/>
      <point x="284" y="-10"/>
      <point x="286" y="-10" type="curve" smooth="yes"/>
      <point x="316" y="-10"/>
      <point x="354" y="-5"/>
      <point x="383" y="4" type="curve"/>
      <point x="383" y="99" type="line"/>
      <point x="353" y="90"/>
      <point x="337" y="87"/>
      <point x="315" y="87" type="curve" smooth="yes"/>
      <point x="264" y="87"/>
      <point x="245" y="106"/>
      <point x="245" y="155" type="curve" smooth="yes"/>
      <point x="245" y="411" type="line"/>
      <point x="384" y="411" type="line"/>
      <point x="384" y="501" type="line"/>
      <point x="245" y="501" type="line"/>
      <point x="245" y="663" type="line"/>
      <point x="132" y="639" type="line"/>
      <point x="132" y="501" type="line"/>
      <point x="32" y="501" type="line"/>
      <point x="32" y="411" type="line"/>
      <point x="132" y="411" type="line"/>
      <point x="132" y="130" type="line" smooth="yes"/>
      <point x="132" y="58"/>
      <point x="164" y="13"/>
      <point x="226" y="-3" type="curve"/>
      <point x="201" y="-104" type="line"/>
      <point x="237" y="-104" type="line" smooth="yes"/>
      <point x="278" y="-104"/>
      <point x="302" y="-120"/>
      <point x="302" y="-147" type="curve" smooth="yes"/>
      <point x="302" y="-175"/>
      <point x="280" y="-192"/>
      <point x="242" y="-192" type="curve" smooth="yes"/>
      <point x="214" y="-192"/>
      <point x="186" y="-182"/>
      <point x="163" y="-164" type="curve"/>
      <point x="126" y="-207" type="line"/>
      <point x="155" y="-233"/>
      <point x="196" y="-246"/>
    </contour>
  </outline>
</glyph>
<glyph name="Tbar" format="2">
  <advance width="638"/>
  <unicode hex="0166"/>
  <outline>
    <contour>
      <point x="259" y="0" type="line"/>
      <point x="379" y="0" type="line"/>
      <point x="379" y="288" type="line"/>
      <point x="519" y="288" type="line"/>
      <point x="519" y="376" type="line"/>
      <point x="379" y="376" type="line"/>
      <point x="379" y="596" type="line"/>
      <point x="613" y="596" type="line"/>
      <point x="613" y="700" type="line"/>
      <point x="25" y="700" type="line"/>
      <point x="25" y="596" type="line"/>
      <point x="259" y="596" type="line"/>
      <point x="259" y="376" type="line"/>
      <point x="120" y="376" type="line"/>
      <point x="120" y="288" type="line"/>
      <point x="259" y="288" type="line"/>
    </contour>
  </outline>
</glyph>
<glyph name="tbar" format="2">
  <advance width="414"/>
  <unicode hex="0167"/>
  <outline>
    <contour>
      <point x="286" y="-10" type="curve" smooth="yes"/>
      <point x="316" y="-10"/>
      <point x="354" y="-5"/>
      <point x="383" y="4" type="curve"/>
      <point x="383" y="99" type="line"/>
      <point x="353" y="90"/>
      <point x="337" y="87"/>
      <point x="315" y="87" type="curve" smooth="yes"/>
      <point x="264" y="87"/>
      <point x="245" y="106"/>
      <point x="245" y="155" type="curve" smooth="yes"/>
      <point x="245" y="240" type="line"/>
      <point x="384" y="240" type="line"/>
      <point x="384" y="309" type="line"/>
      <point x="245" y="309" type="line"/>
      <point x="245" y="411" type="line"/>
      <point x="384" y="411" type="line"/>
      <point x="384" y="501" type="line"/>
      <point x="245" y="501" type="line"/>
      <point x="245" y="663" type="line"/>
      <point x="132" y="639" type="line"/>
      <point x="132" y="501" type="line"/>
      <point x="32" y="501" type="line"/>
      <point x="32" y="411" type="line"/>
      <point x="132" y="411" type="line"/>
      <point x="132" y="309" type="line"/>
      <point x="32" y="309" type="line"/>
      <point x="32" y="240" type="line"/>
      <point x="132" y="240" type="line"/>
      <point x="132" y="130" type="line" smooth="yes"/>
      <point x="132" y="38"/>
      <point x="185" y="-10"/>
    </contour>
  </outline>
</glyph>
<glyph name="Uogonek" format="2">
  <advance width="728"/>
  <unicode hex="0172"/>
  <outline>
    <contour>
      <point x="396" y="-231" type="curve" smooth="yes"/>
      <point x="427" y="-231"/>
      <point x="458" y="-223"/>
      <point x="478" y="-210" type="curve"/>
      <point x="462" y="-157" type="line"/>
      <point x="451" y="-165"/>
      <point x="432" y="-169"/>
      <point x="415" y="-169" type="curve" smooth="yes"/>
      <point x="378" y="-169"/>
      <point x="356" y="-150"/>
      <point x="356" y="-117" type="curve" smooth="yes"/>
      <point x="356" y="-78"/>
      <point x="386" y="-42"/>
      <point x="452" y="0" type="curve"/>
      <point x="580" y="33"/>
      <point x="658" y="142"/>
      <point x="658" y="300" type="curve" smooth="yes"/>
      <point x="658" y="700" type="line"/>
      <point x="538" y="700" type="line"/>
      <point x="538" y="300" type="line" smooth="yes"/>
      <point x="538" y="177"/>
      <point x="470" y="97"/>
      <point x="364" y="97" type="curve" smooth="yes"/>
      <point x="258" y="97"/>
      <point x="190" y="177"/>
      <point x="190" y="300" type="curve" smooth="yes"/>
      <point x="190" y="700" type="line"/>
      <point x="70" y="700" type="line"/>
      <point x="70" y="300" type="line" smooth="yes"/>
      <point x="70" y="107"/>
      <point x="187" y="-14"/>
      <point x="370" y="-11" type="curve"/>
      <point x="313" y="-52"/>
      <point x="289" y="-91"/>
      <point x="289" y="-136" type="curve" smooth="yes"/>
      <point x="289" y="-193"/>
      <point x="332" y="-231"/>
    </contour>
  </outline>
</glyph>
<glyph name="uogonek" format="2">
  <advance width="582"/>
  <unicode hex="0173"/>
  <outline>
    <contour>
      <point x="457" y="-231" type="curve" smooth="yes"/>
      <point x="488" y="-231"/>
      <point x="519" y="-223"/>
      <point x="539" y="-210" type="curve"/>
      <point x="522" y="-157" type="line"/>
      <point x="511" y="-165"/>
      <point x="493" y="-169"/>
      <point x="476" y="-169" type="curve" smooth="yes"/>
      <point x="439" y="-169"/>
      <point x="417" y="-150"/>
      <point x="417" y="-117" type="curve" smooth="yes"/>
      <point x="417" y="-78"/>
      <point x="447" y="-42"/>
      <point x="512" y="0" type="curve"/>
      <point x="512" y="501" type="line"/>
      <point x="399" y="501" type="line"/>
      <point x="399" y="143" type="line"/>
      <point x="373" y="103"/>
      <point x="335" y="83"/>
      <point x="290" y="83" type="curve" smooth="yes"/>
      <point x="223" y="83"/>
      <point x="180" y="130"/>
      <point x="180" y="204" type="curve" smooth="yes"/>
      <point x="180" y="501" type="line"/>
      <point x="66" y="501" type="line"/>
      <point x="66" y="171" type="line" smooth="yes"/>
      <point x="66" y="66"/>
      <point x="138" y="-8"/>
      <point x="240" y="-8" type="curve" smooth="yes"/>
      <point x="307" y="-8"/>
      <point x="361" y="22"/>
      <point x="399" y="81" type="curve"/>
      <point x="399" y="0" type="line"/>
      <point x="444" y="0" type="line"/>
      <point x="378" y="-46"/>
      <point x="350" y="-87"/>
      <point x="350" y="-136" type="curve" smooth="yes"/>
      <point x="350" y="-193"/>
      <point x="393" y="-231"/>
    </contour>
  </outline>
</glyph>
<glyph name="dotlessj" format="2">
  <advance width="252"/>
  <unicode hex="0237"/>
  <anchor x="126" y="501" name="top"/>
  <outline>
    <contour>
      <point x="35" y="-219" type="curve" smooth="yes"/>
      <point x="129" y="-219"/>
      <point x="183" y="-167"/>
      <point x="183" y="-75" type="curve" smooth="yes"/>
      <point x="183" y="501" type="line"/>
      <point x="70" y="501" type="line"/>
      <point x="70" y="-70" type="line" smooth="yes"/>
      <point x="70" y="-108"/>
      <point x="53" y="-125"/>
      <point x="14" y="-125" type="curve" smooth="yes"/>
      <point x="-2" y="-125"/>
      <point x="-13" y="-124"/>
      <point x="-26" y="-121" type="curve"/>
      <point x="-26" y="-211" type="line"/>
      <point x="-11" y="-216"/>
      <point x="14" y="-219"/>
    </contour>
  </outline>
</glyph>
<glyph name="circumflex" format="2">
  <advance width="600"/>
  <unicode hex="02C6"/>
  <outline>
    <contour>
      <point x="123" y="588" type="line"/>
      <point x="211" y="588" type="line"/>
      <point x="299" y="672" type="line"/>
      <point x="387" y="588" type="line"/>
      <point x="477" y="588" type="line"/>
      <point x="357" y="726" type="line"/>
      <point x="243" y="726" type="line"/>
    </contour>
  </outline>
</glyph>
<glyph name="caron" format="2">
  <advance width="600"/>
  <unicode hex="02C7"/>
  <anchor x="300" y="501" name="_top"/>
  <outline>
    <contour>
      <point x="243" y="593" type="line"/>
      <point x="357" y="593" type="line"/>
      <point x="477" y="730" type="line"/>
      <point x="388" y="730" type="line"/>
      <point x="301" y="647" type="line"/>
      <point x="213" y="730" type="line"/>
      <point x="123" y="730" type="line"/>
    </contour>
  </outline>
</glyph>
<glyph name="dotaccent" format="2">
  <advance width="600"/>
  <unicode hex="02D9"/>
  <anchor x="300" y="501" name="_top"/>
  <outline>
    <contour>
      <point x="300" y="606" type="curve" smooth="yes"/>
      <point x="338" y="606"/>
      <point x="369" y="637"/>
      <point x="369" y="674" type="curve" smooth="yes"/>
      <point x="369" y="712"/>
      <point x="338" y="743"/>
      <point x="300" y="743" type="curve" smooth="yes"/>
      <point x="262" y="743"/>
      <point x="231" y="712"/>
      <point x="231" y="674" type="curve" smooth="yes"/>
      <point x="231" y="637"/>
      <point x="262" y="606"/>
    </contour>
  </outline>
</glyph>
<glyph name="tilde" format="2">
  <advance width="600"/>
  <unicode hex="02DC"/>
  <anchor x="300" y="501" name="_top"/>
  <outline>
    <contour>
      <point x="181" y="585" type="line"/>
      <point x="194" y="633"/>
      <point x="207" y="650"/>
      <point x="231" y="650" type="curve"/>
      <point x="270" y="650"/>
      <point x="321" y="590"/>
      <point x="379" y="590" type="curve" smooth="yes"/>
      <point x="431" y="590"/>
      <point x="467" y="631"/>
      <point x="488" y="711" type="curve"/>
      <point x="419" y="726" type="line"/>
      <point x="406" y="677"/>
      <point x="395" y="661"/>
      <point x="374" y="661" type="curve"/>
      <point x="335" y="661"/>
      <point x="284" y="721"/>
      <point x="225" y="721" type="curve" smooth="yes"/>
      <point x="170" y="721"/>
      <point x="133" y="679"/>
      <point x="112" y="600" type="curve"/>
    </contour>
  </outline>
</glyph>
<glyph name="emdash" format="2">
  <advance width="699"/>
  <unicode hex="2014"/>
  <outline>
    <contour>
      <point x="56" y="236" type="line"/>
      <point x="642" y="236" type="line"/>
      <point x="642" y="332" type="line"/>
      <point x="56" y="332" type="line"/>
    </contour>
  </outline>
</glyph>
<glyph name="dagger" format="2">
  <advance width="448"/>
  <unicode hex="2020"/>
  <outline>
    <contour>
      <point x="179" y="0" type="line"/>
      <point x="269" y="0" type="line"/>
      <point x="269" y="427" type="line"/>
      <point x="401" y="427" type="line"/>
      <point x="401" y="507" type="line"/>
      <point x="269" y="507" type="line"/>
      <point x="269" y="700" type="line"/>
      <point x="179" y="700" type="line"/>
      <point x="179" y="507" type="line"/>
      <point x="47" y="507" type="line"/>
      <point x="47" y="427" type="line"/>
      <point x="179" y="427" type="line"/>
    </contour>
  </outline>
</glyph>
<glyph name="daggerdbl" format="2">
  <advance width="448"/>
  <unicode hex="2021"/>
  <outline>
    <contour>
      <point x="179" y="0" type="line"/>
      <point x="269" y="0" type="line"/>
      <point x="269" y="193" type="line"/>
      <point x="401" y="193" type="line"/>
      <point x="401" y="273" type="line"/>
      <point x="269" y="273" type="line"/>
      <point x="269" y="427" type="line"/>
      <point x="401" y="427" type="line"/>
      <point x="401" y="507" type="line"/>
      <point x="269" y="507" type="line"/>
      <point x="269" y="700" type="line"/>
      <point x="179" y="700" type="line"/>
      <point x="179" y="507" type="line"/>
      <point x="47" y="507" type="line"/>
      <point x="47" y="427" type="line"/>
      <point x="179" y="427" type="line"/>
      <point x="179" y="273" type="line"/>
      <point x="47" y="273" type="line"/>
      <point x="47" y="193" type="line"/>
      <point x="179" y="193" type="line"/>
    </contour>
  </outline>
</glyph>
<glyph name="uni2070" format="2">
  <advance width="358"/>
  <unicode hex="2070"/>
  <outline>
    <contour>
      <point x="179" y="345" type="curve" smooth="yes"/>
      <point x="269" y="345"/>
      <point x="330" y="416"/>
      <point x="330" y="525" type="curve" smooth="yes"/>
      <point x="330" y="634"/>
      <point x="269" y="705"/>
      <point x="179" y="705" type="curve" smooth="yes"/>
      <point x="89" y="705"/>
      <point x="28" y="634"/>
      <point x="28" y="525" type="curve" smooth="yes"/>
      <point x="28" y="416"/>
      <point x="89" y="345"/>
    </contour>
    <contour>
      <point x="179" y="407" type="curve" smooth="yes"/>
      <point x="129" y="407"/>
      <point x="97" y="451"/>
      <point x="97" y="525" type="curve" smooth="yes"/>
      <point x="97" y="599"/>
      <point x="129" y="644"/>
      <point x="179" y="644" type="curve" smooth="yes"/>
      <point x="228" y="644"/>
      <point x="261" y="599"/>
      <point x="261" y="525" type="curve" smooth="yes"/>
      <point x="261" y="451"/>
      <point x="228" y="407"/>
    </contour>
  </outline>
</glyph>
<glyph name="uni2074" format="2">
  <advance width="347"/>
  <unicode hex="2074"/>
  <outline>
    <contour>
      <point x="217" y="350" type="line"/>
      <point x="287" y="350" type="line"/>
      <point x="287" y="431" type="line"/>
      <point x="329" y="431" type="line"/>
      <point x="329" y="488" type="line"/>
      <point x="287" y="488" type="line"/>
      <point x="287" y="700" type="line"/>
      <point x="206" y="700" type="line"/>
      <point x="25" y="489" type="line"/>
      <point x="25" y="431" type="line"/>
      <point x="217" y="431" type="line"/>
    </contour>
    <contour>
      <point x="97" y="488" type="line"/>
      <point x="217" y="627" type="line"/>
      <point x="217" y="488" type="line"/>
    </contour>
  </outline>
</glyph>
<glyph name="uni2075" format="2">
  <advance width="319"/>
  <unicode hex="2075"/>
  <outline>
    <contour>
      <point x="150" y="345" type="curve"/>
      <point x="236" y="345"/>
      <point x="293" y="392"/>
      <point x="293" y="462" type="curve" smooth="yes"/>
      <point x="293" y="526"/>
      <point x="244" y="569"/>
      <point x="167" y="570" type="curve" smooth="yes"/>
      <point x="144" y="570"/>
      <point x="122" y="565"/>
      <point x="101" y="555" type="curve"/>
      <point x="105" y="642" type="line"/>
      <point x="274" y="642" type="line"/>
      <point x="274" y="700" type="line"/>
      <point x="48" y="700" type="line"/>
      <point x="39" y="516" type="line"/>
      <point x="86" y="502" type="line"/>
      <point x="109" y="512"/>
      <point x="129" y="517"/>
      <point x="152" y="517" type="curve" smooth="yes"/>
      <point x="194" y="517"/>
      <point x="220" y="494"/>
      <point x="220" y="461" type="curve" smooth="yes"/>
      <point x="220" y="427"/>
      <point x="191" y="403"/>
      <point x="150" y="403" type="curve"/>
      <point x="121" y="403"/>
      <point x="95" y="412"/>
      <point x="58" y="435" type="curve"/>
      <point x="24" y="382" type="line"/>
      <point x="64" y="356"/>
      <point x="103" y="345"/>
    </contour>
  </outline>
</glyph>
<glyph name="uni2076" format="2">
  <advance width="334"/>
  <unicode hex="2076"/>
  <outline>
    <contour>
      <point x="180" y="345" type="curve" smooth="yes"/>
      <point x="255" y="345"/>
      <point x="310" y="394"/>
      <point x="310" y="460" type="curve" smooth="yes"/>
      <point x="310" y="522"/>
      <point x="262" y="564"/>
      <point x="193" y="564" type="curve" smooth="yes"/>
      <point x="155" y="564"/>
      <point x="119" y="547"/>
      <point x="97" y="520" type="curve"/>
      <point x="97" y="597"/>
      <point x="131" y="643"/>
      <point x="192" y="643" type="curve" smooth="yes"/>
      <point x="214" y="643"/>
      <point x="240" y="635"/>
      <point x="264" y="620" type="curve"/>
      <point x="297" y="675" type="line"/>
      <point x="267" y="695"/>
      <point x="233" y="705"/>
      <point x="198" y="705" type="curve" smooth="yes"/>
      <point x="95" y="705"/>
      <point x="27" y="631"/>
      <point x="27" y="519" type="curve" smooth="yes"/>
      <point x="27" y="414"/>
      <point x="88" y="345"/>
    </contour>
    <contour>
      <point x="176" y="512" type="curve" smooth="yes"/>
      <point x="214" y="512"/>
      <point x="240" y="490"/>
      <point x="240" y="459" type="curve" smooth="yes"/>
      <point x="240" y="428"/>
      <point x="214" y="405"/>
      <point x="179" y="405" type="curve" smooth="yes"/>
      <point x="141" y="405"/>
      <point x="111" y="433"/>
      <point x="101" y="478" type="curve"/>
      <point x="121" y="500"/>
      <point x="147" y="512"/>
    </contour>
  </outline>
</glyph>
<glyph name="uni2077" format="2">
  <advance width="312"/>
  <unicode hex="2077"/>
  <outline>
    <contour>
      <point x="62" y="350" type="line"/>
      <point x="146" y="350" type="line"/>
      <point x="297" y="647" type="line"/>
      <point x="297" y="700" type="line"/>
      <point x="21" y="700" type="line"/>
      <point x="21" y="638" type="line"/>
      <point x="219" y="638" type="line"/>
    </contour>
  </outline>
</glyph>
<glyph name="uni2078" format="2">
  <advance width="333"/>
  <unicode hex="2078"/>
  <outline>
    <contour>
      <point x="167" y="345" type="curve" smooth="yes"/>
      <point x="246" y="345"/>
      <point x="303" y="387"/>
      <point x="303" y="445" type="curve" smooth="yes"/>
      <point x="303" y="486"/>
      <point x="274" y="518"/>
      <point x="230" y="530" type="curve"/>
      <point x="268" y="542"/>
      <point x="293" y="572"/>
      <point x="293" y="609" type="curve" smooth="yes"/>
      <point x="293" y="663"/>
      <point x="237" y="706"/>
      <point x="166" y="706" type="curve" smooth="yes"/>
      <point x="95" y="706"/>
      <point x="40" y="664"/>
      <point x="40" y="609" type="curve" smooth="yes"/>
      <point x="40" y="572"/>
      <point x="65" y="542"/>
      <point x="102" y="530" type="curve"/>
      <point x="59" y="518"/>
      <point x="29" y="486"/>
      <point x="29" y="445" type="curve" smooth="yes"/>
      <point x="29" y="387"/>
      <point x="86" y="345"/>
    </contour>
    <contour>
      <point x="167" y="555" type="curve" smooth="yes"/>
      <point x="134" y="555"/>
      <point x="109" y="575"/>
      <point x="109" y="602" type="curve" smooth="yes"/>
      <point x="109" y="629"/>
      <point x="133" y="649"/>
      <point x="167" y="649" type="curve" smooth="yes"/>
      <point x="198" y="649"/>
      <point x="223" y="629"/>
      <point x="223" y="602" type="curve" smooth="yes"/>
      <point x="223" y="575"/>
      <point x="198" y="555"/>
    </contour>
    <contour>
      <point x="167" y="402" type="curve" smooth="yes"/>
      <point x="128" y="402"/>
      <point x="100" y="424"/>
      <point x="100" y="452" type="curve" smooth="yes"/>
      <point x="100" y="482"/>
      <point x="127" y="503"/>
      <point x="167" y="503" type="curve" smooth="yes"/>
      <point x="205" y="503"/>
      <point x="232" y="482"/>
      <point x="232" y="452" type="curve" smooth="yes"/>
      <point x="232" y="424"/>
      <point x="205" y="402"/>
    </contour>
  </outline>
</glyph>
<glyph name="uni2079" format="2">
  <advance width="334"/>
  <unicode hex="2079"/>
  <outline>
    <contour>
      <point x="154" y="705" type="curve" smooth="yes"/>
      <point x="79" y="705"/>
      <point x="24" y="656"/>
      <point x="24" y="590" type="curve" smooth="yes"/>
      <point x="24" y="528"/>
      <point x="72" y="486"/>
      <point x="141" y="486" type="curve" smooth="yes"/>
      <point x="179" y="486"/>
      <point x="215" y="503"/>
      <point x="237" y="530" type="curve"/>
      <point x="237" y="453"/>
      <point x="203" y="407"/>
      <point x="142" y="407" type="curve" smooth="yes"/>
      <point x="120" y="407"/>
      <point x="94" y="415"/>
      <point x="70" y="430" type="curve"/>
      <point x="37" y="375" type="line"/>
      <point x="67" y="355"/>
      <point x="101" y="345"/>
      <point x="136" y="345" type="curve" smooth="yes"/>
      <point x="239" y="345"/>
      <point x="307" y="419"/>
      <point x="307" y="531" type="curve" smooth="yes"/>
      <point x="307" y="636"/>
      <point x="246" y="705"/>
    </contour>
    <contour>
      <point x="158" y="538" type="curve" smooth="yes"/>
      <point x="120" y="538"/>
      <point x="94" y="560"/>
      <point x="94" y="591" type="curve" smooth="yes"/>
      <point x="94" y="622"/>
      <point x="120" y="645"/>
      <point x="155" y="645" type="curve" smooth="yes"/>
      <point x="193" y="645"/>
      <point x="223" y="617"/>
      <point x="233" y="572" type="curve"/>
      <point x="213" y="550"/>
      <point x="187" y="538"/>
    </contour>
  </outline>
</glyph>
<glyph name="uni2082" format="2">
  <advance width="304"/>
  <unicode hex="2082"/>
  <outline>
    <contour>
      <point x="30" y="0" type="line"/>
      <point x="280" y="0" type="line"/>
      <point x="280" y="60" type="line"/>
      <point x="122" y="60" type="line"/>
      <point x="220" y="152" type="line" smooth="yes"/>
      <point x="260" y="189"/>
      <point x="276" y="216"/>
      <point x="276" y="252" type="curve" smooth="yes"/>
      <point x="276" y="312"/>
      <point x="225" y="355"/>
      <point x="151" y="355" type="curve" smooth="yes"/>
      <point x="103" y="355"/>
      <point x="58" y="335"/>
      <point x="18" y="298" type="curve"/>
      <point x="58" y="251" type="line"/>
      <point x="92" y="283"/>
      <point x="118" y="294"/>
      <point x="149" y="294" type="curve" smooth="yes"/>
      <point x="182" y="294"/>
      <point x="207" y="273"/>
      <point x="207" y="246" type="curve" smooth="yes"/>
      <point x="207" y="226"/>
      <point x="197" y="209"/>
      <point x="173" y="186" type="curve" smooth="yes"/>
      <point x="30" y="52" type="line"/>
    </contour>
  </outline>
</glyph>
<glyph name="uni2083" format="2">
  <advance width="324"/>
  <unicode hex="2083"/>
  <outline>
    <contour>
      <point x="157" y="-5" type="curve"/>
      <point x="239" y="-5"/>
      <point x="296" y="38"/>
      <point x="296" y="98" type="curve"/>
      <point x="296" y="138"/>
      <point x="265" y="168"/>
      <point x="218" y="178" type="curve"/>
      <point x="260" y="190"/>
      <point x="286" y="220"/>
      <point x="286" y="256" type="curve"/>
      <point x="286" y="315"/>
      <point x="233" y="356"/>
      <point x="158" y="356" type="curve"/>
      <point x="110" y="356"/>
      <point x="60" y="336"/>
      <point x="25" y="303" type="curve"/>
      <point x="69" y="256" type="line"/>
      <point x="100" y="283"/>
      <point x="125" y="293"/>
      <point x="156" y="293" type="curve"/>
      <point x="190" y="293"/>
      <point x="215" y="274"/>
      <point x="215" y="248" type="curve"/>
      <point x="215" y="220"/>
      <point x="191" y="201"/>
      <point x="156" y="201" type="curve"/>
      <point x="126" y="201" type="line"/>
      <point x="126" y="145" type="line"/>
      <point x="163" y="145" type="line"/>
      <point x="201" y="145"/>
      <point x="225" y="129"/>
      <point x="225" y="102" type="curve"/>
      <point x="225" y="74"/>
      <point x="197" y="56"/>
      <point x="156" y="56" type="curve"/>
      <point x="123" y="56"/>
      <point x="95" y="67"/>
      <point x="63" y="93" type="curve"/>
      <point x="21" y="43" type="line"/>
      <point x="58" y="12"/>
      <point x="105" y="-5"/>
    </contour>
  </outline>
</glyph>
<glyph name="uni2086" format="2">
  <advance width="336"/>
  <unicode hex="2086"/>
  <outline>
    <contour>
      <point x="180" y="-5" type="curve" smooth="yes"/>
      <point x="255" y="-5"/>
      <point x="310" y="44"/>
      <point x="310" y="110" type="curve" smooth="yes"/>
      <point x="310" y="172"/>
      <point x="262" y="214"/>
      <point x="193" y="214" type="curve" smooth="yes"/>
      <point x="155" y="214"/>
      <point x="119" y="197"/>
      <point x="97" y="170" type="curve"/>
      <point x="97" y="247"/>
      <point x="131" y="293"/>
      <point x="192" y="293" type="curve" smooth="yes"/>
      <point x="214" y="293"/>
      <point x="240" y="285"/>
      <point x="264" y="270" type="curve"/>
      <point x="297" y="325" type="line"/>
      <point x="267" y="345"/>
      <point x="233" y="355"/>
      <point x="198" y="355" type="curve" smooth="yes"/>
      <point x="95" y="355"/>
      <point x="27" y="281"/>
      <point x="27" y="169" type="curve" smooth="yes"/>
      <point x="27" y="64"/>
      <point x="88" y="-5"/>
    </contour>
    <contour>
      <point x="176" y="162" type="curve" smooth="yes"/>
      <point x="214" y="162"/>
      <point x="240" y="140"/>
      <point x="240" y="109" type="curve" smooth="yes"/>
      <point x="240" y="78"/>
      <point x="214" y="55"/>
      <point x="179" y="55" type="curve" smooth="yes"/>
      <point x="141" y="55"/>
      <point x="111" y="83"/>
      <point x="101" y="128" type="curve"/>
      <point x="121" y="150"/>
      <point x="147" y="162"/>
    </contour>
  </outline>
</glyph>
<glyph name="uni2088" format="2">
  <advance width="332"/>
  <unicode hex="2088"/>
  <outline>
    <contour>
      <point x="167" y="-5" type="curve" smooth="yes"/>
      <point x="246" y="-5"/>
      <point x="303" y="37"/>
      <point x="303" y="95" type="curve" smooth="yes"/>
      <point x="303" y="136"/>
      <point x="274" y="168"/>
      <point x="230" y="180" type="curve"/>
      <point x="268" y="192"/>
      <point x="293" y="222"/>
      <point x="293" y="259" type="curve" smooth="yes"/>
      <point x="293" y="313"/>
      <point x="237" y="356"/>
      <point x="166" y="356" type="curve" smooth="yes"/>
      <point x="95" y="356"/>
      <point x="40" y="314"/>
      <point x="40" y="259" type="curve" smooth="yes"/>
      <point x="40" y="222"/>
      <point x="65" y="192"/>
      <point x="102" y="180" type="curve"/>
      <point x="59" y="168"/>
      <point x="29" y="136"/>
      <point x="29" y="95" type="curve" smooth="yes"/>
      <point x="29" y="37"/>
      <point x="86" y="-5"/>
    </contour>
    <contour>
      <point x="167" y="205" type="curve" smooth="yes"/>
      <point x="134" y="205"/>
      <point x="109" y="225"/>
      <point x="109" y="252" type="curve" smooth="yes"/>
      <point x="109" y="279"/>
      <point x="133" y="299"/>
      <point x="167" y="299" type="curve" smooth="yes"/>
      <point x="198" y="299"/>
      <point x="223" y="279"/>
      <point x="223" y="252" type="curve" smooth="yes"/>
      <point x="223" y="225"/>
      <point x="198" y="205"/>
    </contour>
    <contour>
      <point x="167" y="52" type="curve" smooth="yes"/>
      <point x="128" y="52"/>
      <point x="100" y="74"/>
      <point x="100" y="102" type="curve" smooth="yes"/>
      <point x="100" y="132"/>
      <point x="127" y="153"/>
      <point x="167" y="153" type="curve" smooth="yes"/>
      <point x="205" y="153"/>
      <point x="232" y="132"/>
      <point x="232" y="102" type="curve" smooth="yes"/>
      <point x="232" y="74"/>
      <point x="205" y="52"/>
    </contour>
  </outline>
</glyph>
<glyph name="Euro" format="2">
  <advance width="738"/>
  <unicode hex="20AC"/>
  <outline>
    <contour>
      <point x="443" y="-11" type="curve" smooth="yes"/>
      <point x="543" y="-11"/>
      <point x="627" y="32"/>
      <point x="687" y="116" type="curve"/>
      <point x="611" y="176" type="line"/>
      <point x="571" y="117"/>
      <point x="511" y="83"/>
      <point x="442" y="83" type="curve" smooth="yes"/>
      <point x="344" y="83"/>
      <point x="271" y="148"/>
      <point x="243" y="251" type="curve"/>
      <point x="427" y="251" type="line"/>
      <point x="450" y="316" type="line"/>
      <point x="231" y="316" type="line"/>
      <point x="230" y="327"/>
      <point x="230" y="338"/>
      <point x="230" y="350" type="curve" smooth="yes"/>
      <point x="230" y="362"/>
      <point x="230" y="373"/>
      <point x="231" y="384" type="curve"/>
      <point x="474" y="384" type="line"/>
      <point x="497" y="449" type="line"/>
      <point x="243" y="449" type="line"/>
      <point x="271" y="552"/>
      <point x="344" y="617"/>
      <point x="442" y="617" type="curve" smooth="yes"/>
      <point x="511" y="617"/>
      <point x="571" y="583"/>
      <point x="611" y="524" type="curve"/>
      <point x="687" y="584" type="line"/>
      <point x="627" y="668"/>
      <point x="543" y="711"/>
      <point x="443" y="711" type="curve" smooth="yes"/>
      <point x="289" y="711"/>
      <point x="171" y="607"/>
      <point x="137" y="449" type="curve"/>
      <point x="42" y="449" type="line"/>
      <point x="42" y="384" type="line"/>
      <point x="128" y="384" type="line"/>
      <point x="127" y="372"/>
      <point x="126" y="362"/>
      <point x="126" y="350" type="curve" smooth="yes"/>
      <point x="126" y="338"/>
      <point x="127" y="327"/>
      <point x="128" y="316" type="curve"/>
      <point x="42" y="316" type="line"/>
      <point x="42" y="251" type="line"/>
      <point x="137" y="251" type="line"/>
      <point x="171" y="93"/>
      <point x="289" y="-11"/>
    </contour>
  </outline>
</glyph>
<glyph name="uni2191" format="2">
  <advance width="611"/>
  <unicode hex="2191"/>
  <outline>
    <contour>
      <point x="252" y="0" type="line"/>
      <point x="358" y="0" type="line"/>
      <point x="358" y="550" type="line"/>
      <point x="509" y="356" type="line"/>
      <point x="578" y="415" type="line"/>
      <point x="306" y="750" type="line"/>
      <point x="33" y="414" type="line"/>
      <point x="102" y="356" type="line"/>
      <point x="252" y="549" type="line"/>
    </contour>
  </outline>
</glyph>
<glyph name="minus" format="2">
  <advance width="600"/>
  <unicode hex="2212"/>
  <outline>
    <contour>
      <point x="90" y="315" type="line"/>
      <point x="510" y="315" type="line"/>
      <point x="510" y="402" type="line"/>
      <point x="90" y="402" type="line"/>
    </contour>
  </outline>
</glyph>
<glyph name="notequal" format="2">
  <advance width="600"/>
  <unicode hex="2260"/>
  <outline>
    <contour>
      <point x="97" y="104" type="line"/>
      <point x="183" y="104" type="line"/>
      <point x="258" y="221" type="line"/>
      <point x="510" y="221" type="line"/>
      <point x="510" y="308" type="line"/>
      <point x="313" y="308" type="line"/>
      <point x="374" y="401" type="line"/>
      <point x="510" y="401" type="line"/>
      <point x="510" y="488" type="line"/>
      <point x="429" y="488" type="line"/>
      <point x="503" y="603" type="line"/>
      <point x="418" y="603" type="line"/>
      <point x="343" y="488" type="line"/>
      <point x="90" y="488" type="line"/>
      <point x="90" y="401" type="line"/>
      <point x="288" y="401" type="line"/>
      <point x="227" y="308" type="line"/>
      <point x="90" y="308" type="line"/>
      <point x="90" y="221" type="line"/>
      <point x="173" y="221" type="line"/>
    </contour>
  </outline>
</glyph>
<glyph name="a.school" format="2">
  <advance width="610"/>
  <anchor x="294" y="501" name="top"/>
  <anchor x="540" y="0" name="bottom"/>
  <outline>
    <contour>
      <point x="273" y="-5" type="curve" smooth="yes"/>
      <point x="336" y="-5"/>
      <point x="392" y="21"/>
      <point x="428" y="66" type="curve"/>
      <point x="428" y="0" type="line"/>
      <point x="540" y="0" type="line"/>
      <point x="540" y="501" type="line"/>
      <point x="427" y="501" type="line"/>
      <point x="427" y="440" type="line"/>
      <point x="390" y="482"/>
      <point x="338" y="505"/>
      <point x="281" y="505" type="curve" smooth="yes"/>
      <point x="150" y="505"/>
      <point x="47" y="393"/>
      <point x="47" y="250" type="curve" smooth="yes"/>
      <point x="47" y="108"/>
      <point x="146" y="-5"/>
    </contour>
    <contour>
      <point x="308" y="90" type="curve" smooth="yes"/>
      <point x="222" y="90"/>
      <point x="158" y="159"/>
      <point x="158" y="250" type="curve" smooth="yes"/>
      <point x="158" y="342"/>
      <point x="222" y="410"/>
      <point x="308" y="410" type="curve" smooth="yes"/>
      <point x="355" y="410"/>
      <point x="398" y="390"/>
      <point x="427" y="356" type="curve"/>
      <point x="427" y="145" type="line"/>
      <point x="398" y="109"/>
      <point x="357" y="90"/>
    </contour>
  </outline>
</glyph>
<glyph name="aogonek.school" format="2">
  <advance width="610"/>
  <outline>
    <contour>
      <point x="485" y="-231" type="curve" smooth="yes"/>
      <point x="516" y="-231"/>
      <point x="546" y="-223"/>
      <point x="567" y="-210" type="curve"/>
      <point x="550" y="-157" type="line"/>
      <point x="539" y="-165"/>
      <point x="521" y="-169"/>
      <point x="503" y="-169" type="curve" smooth="yes"/>
      <point x="467" y="-169"/>
      <point x="445" y="-150"/>
      <point x="445" y="-117" type="curve" smooth="yes"/>
      <point x="445" y="-78"/>
      <point x="474" y="-42"/>
      <point x="540" y="0" type="curve"/>
      <point x="540" y="501" type="line"/>
      <point x="427" y="501" type="line"/>
      <point x="427" y="440" type="line"/>
      <point x="390" y="482"/>
      <point x="338" y="505"/>
      <point x="281" y="505" type="curve" smooth="yes"/>
      <point x="150" y="505"/>
      <point x="47" y="393"/>
      <point x="47" y="250" type="curve" smooth="yes"/>
      <point x="47" y="108"/>
      <point x="146" y="-5"/>
      <point x="273" y="-5" type="curve" smooth="yes"/>
      <point x="336" y="-5"/>
      <point x="392" y="21"/>
      <point x="428" y="66" type="curve"/>
      <point x="428" y="0" type="line"/>
      <point x="472" y="0" type="line"/>
      <point x="406" y="-46"/>
      <point x="378" y="-87"/>
      <point x="378" y="-136" type="curve" smooth="yes"/>
      <point x="378" y="-193"/>
      <point x="420" y="-231"/>
    </contour>
    <contour>
      <point x="158" y="250" type="curve" smooth="yes"/>
      <point x="158" y="342"/>
      <point x="222" y="410"/>
      <point x="308" y="410" type="curve" smooth="yes"/>
      <point x="355" y="410"/>
      <point x="398" y="390"/>
      <point x="427" y="356" type="curve"/>
      <point x="427" y="145" type="line"/>
      <point x="398" y="109"/>
      <point x="357" y="90"/>
      <point x="308" y="90" type="curve" smooth="yes"/>
      <point x="222" y="90"/>
      <point x="158" y="159"/>
    </contour>
  </outline>
</glyph>
<glyph name="caronSlovak" format="2">
  <advance width="600"/>
  <outline>
    <contour>
      <point x="291" y="514" type="line"/>
      <point x="362" y="514" type="line"/>
      <point x="394" y="737" type="line"/>
      <point x="296" y="718" type="line"/>
    </contour>
  </outline>
</glyph>
<glyph name="cordinal" format="2">
  <advance width="415"/>
  <outline>
    <contour>
      <point x="233" y="308" type="curve" smooth="yes"/>
      <point x="294" y="308"/>
      <point x="352" y="333"/>
      <point x="392" y="375" type="curve"/>
      <point x="335" y="435" type="line"/>
      <point x="307" y="404"/>
      <point x="272" y="389"/>
      <point x="236" y="389" type="curve" smooth="yes"/>
      <point x="171" y="389"/>
      <point x="122" y="441"/>
      <point x="122" y="510" type="curve" smooth="yes"/>
      <point x="122" y="578"/>
      <point x="171" y="631"/>
      <point x="236" y="631" type="curve" smooth="yes"/>
      <point x="272" y="631"/>
      <point x="307" y="615"/>
      <point x="335" y="584" type="curve"/>
      <point x="392" y="644" type="line"/>
      <point x="352" y="686"/>
      <point x="294" y="711"/>
      <point x="233" y="711" type="curve" smooth="yes"/>
      <point x="120" y="711"/>
      <point x="31" y="623"/>
      <point x="31" y="510" type="curve" smooth="yes"/>
      <point x="31" y="396"/>
      <point x="120" y="308"/>
    </contour>
  </outline>
</glyph>
<glyph name="four.tab" format="2">
  <advance width="600"/>
  <outline>
    <contour>
      <point x="387" y="0" type="line"/>
      <point x="493" y="0" type="line"/>
      <point x="493" y="173" type="line"/>
      <point x="582" y="173" type="line"/>
      <point x="582" y="267" type="line"/>
      <point x="493" y="267" type="line"/>
      <point x="493" y="700" type="line"/>
      <point x="374" y="700" type="line"/>
      <point x="20" y="262" type="line"/>
      <point x="20" y="173" type="line"/>
      <point x="387" y="173" type="line"/>
    </contour>
    <contour>
      <point x="137" y="267" type="line"/>
      <point x="387" y="579" type="line"/>
      <point x="387" y="267" type="line"/>
    </contour>
  </outline>
</glyph>
<glyph name="g.alt" format="2">
  <advance width="580"/>
  <anchor x="282" y="501" name="top"/>
  <outline>
    <contour>
      <point x="275" y="-219" type="curve" smooth="yes"/>
      <point x="452" y="-219"/>
      <point x="562" y="-155"/>
      <point x="562" y="-55" type="curve" smooth="yes"/>
      <point x="562" y="12"/>
      <point x="507" y="53"/>
      <point x="412" y="57" type="curve" smooth="yes"/>
      <point x="230" y="65" type="line" smooth="yes"/>
      <point x="193" y="66"/>
      <point x="175" y="77"/>
      <point x="175" y="100" type="curve" smooth="yes"/>
      <point x="175" y="120"/>
      <point x="191" y="137"/>
      <point x="215" y="144" type="curve"/>
      <point x="237" y="139"/>
      <point x="259" y="136"/>
      <point x="282" y="136" type="curve" smooth="yes"/>
      <point x="406" y="136"/>
      <point x="503" y="218"/>
      <point x="503" y="322" type="curve" smooth="yes"/>
      <point x="503" y="360"/>
      <point x="489" y="395"/>
      <point x="468" y="424" type="curve"/>
      <point x="482" y="441"/>
      <point x="503" y="451"/>
      <point x="528" y="451" type="curve" smooth="yes"/>
      <point x="545" y="451"/>
      <point x="562" y="449"/>
      <point x="576" y="444" type="curve"/>
      <point x="576" y="540" type="line"/>
      <point x="567" y="542"/>
      <point x="559" y="543"/>
      <point x="548" y="543" type="curve" smooth="yes"/>
      <point x="497" y="543"/>
      <point x="459" y="511"/>
      <point x="441" y="452" type="curve"/>
      <point x="402" y="487"/>
      <point x="346" y="509"/>
      <point x="282" y="509" type="curve" smooth="yes"/>
      <point x="159" y="509"/>
      <point x="62" y="426"/>
      <point x="62" y="322" type="curve" smooth="yes"/>
      <point x="62" y="250"/>
      <point x="109" y="188"/>
      <point x="178" y="157" type="curve"/>
      <point x="118" y="143"/>
      <point x="80" y="107"/>
      <point x="80" y="63" type="curve" smooth="yes"/>
      <point x="80" y="25"/>
      <point x="102" y="-4"/>
      <point x="143" y="-19" type="curve"/>
      <point x="72" y="-36"/>
      <point x="32" y="-65"/>
      <point x="32" y="-103" type="curve" smooth="yes"/>
      <point x="32" y="-178"/>
      <point x="120" y="-219"/>
    </contour>
    <contour>
      <point x="282" y="217" type="curve" smooth="yes"/>
      <point x="218" y="217"/>
      <point x="170" y="262"/>
      <point x="170" y="322" type="curve" smooth="yes"/>
      <point x="170" y="382"/>
      <point x="218" y="428"/>
      <point x="282" y="428" type="curve" smooth="yes"/>
      <point x="346" y="428"/>
      <point x="395" y="382"/>
      <point x="395" y="322" type="curve" smooth="yes"/>
      <point x="395" y="262"/>
      <point x="346" y="217"/>
    </contour>
    <contour>
      <point x="272" y="-146" type="curve" smooth="yes"/>
      <point x="183" y="-146"/>
      <point x="136" y="-124"/>
      <point x="136" y="-82" type="curve" smooth="yes"/>
      <point x="136" y="-60"/>
      <point x="155" y="-42"/>
      <point x="186" y="-31" type="curve"/>
      <point x="200" y="-33"/>
      <point x="214" y="-34"/>
      <point x="230" y="-35" type="curve" smooth="yes"/>
      <point x="396" y="-42" type="line" smooth="yes"/>
      <point x="431" y="-44"/>
      <point x="448" y="-54"/>
      <point x="448" y="-77" type="curve" smooth="yes"/>
      <point x="448" y="-119"/>
      <point x="381" y="-146"/>
    </contour>
  </outline>
</glyph>
<glyph name="gravecomb" format="2">
  <anchor x="305" y="501" name="_top"/>
  <outline>
    <contour>
      <point x="279" y="592" type="line"/>
      <point x="385" y="592" type="line"/>
      <point x="261" y="725" type="line"/>
      <point x="113" y="725" type="line"/>
    </contour>
  </outline>
</glyph>
<glyph name="reversequotedblleft" format="2">
  <advance width="446"/>
  <outline>
    <contour>
      <point x="125" y="486" type="line"/>
      <point x="208" y="486" type="line"/>
      <point x="146" y="750" type="line"/>
      <point x="32" y="750" type="line"/>
    </contour>
    <contour>
      <point x="317" y="486" type="line"/>
      <point x="401" y="486" type="line"/>
      <point x="339" y="750" type="line"/>
      <point x="224" y="750" type="line"/>
    </contour>
  </outline>
</glyph>
<glyph name="reversequoteleft" format="2">
  <advance width="254"/>
  <outline>
    <contour>
      <point x="125" y="486" type="line"/>
      <point x="208" y="486" type="line"/>
      <point x="146" y="750" type="line"/>
      <point x="32" y="750" type="line"/>
    </contour>
  </outline>
</glyph>
<glyph name="uni0302" format="2">
  <anchor x="300" y="501" name="_top"/>
  <outline>
    <contour>
      <point x="123" y="588" type="line"/>
      <point x="211" y="588" type="line"/>
      <point x="299" y="672" type="line"/>
      <point x="387" y="588" type="line"/>
      <point x="477" y="588" type="line"/>
      <point x="357" y="726" type="line"/>
      <point x="243" y="726" type="line"/>
    </contour>
  </outline>
</glyph>
<glyph name="uni0304" format="2">
  <anchor x="300" y="501" name="_top"/>
  <outline>
    <contour>
      <point x="151" y="618" type="line"/>
      <point x="449" y="618" type="line"/>
      <point x="449" y="692" type="line"/>
      <point x="151" y="692" type="line"/>
    </contour>
  </outline>
</glyph>
